<?xml version="1.0" encoding="UTF-8" standalone="no"?>
<!DOCTYPE svg PUBLIC "-//W3C//DTD SVG 1.1//EN"
 "http://www.w3.org/Graphics/SVG/1.1/DTD/svg11.dtd">
<!-- Generated by graphviz version 2.38.0 (20140413.2041)
 -->
<!-- Title: Tree Pages: 1 -->
<svg width="1424pt" height="477pt"
 viewBox="0.00 0.00 1423.50 477.00" xmlns="http://www.w3.org/2000/svg" xmlns:xlink="http://www.w3.org/1999/xlink">
<g id="graph0" class="graph" transform="scale(1 1) rotate(0) translate(4 473)">
<title>Tree</title>
<polygon fill="white" stroke="none" points="-4,4 -4,-473 1419.5,-473 1419.5,4 -4,4"/>
<!-- 0 -->
<g id="node1" class="node"><title>0</title>
<polygon fill="#efb083" stroke="black" points="901,-469 790,-469 790,-401 901,-401 901,-469"/>
<text text-anchor="middle" x="845.5" y="-453.8" font-family="Times New Roman,serif" font-size="14.00">oldpeak &lt;= 2.35</text>
<text text-anchor="middle" x="845.5" y="-438.8" font-family="Times New Roman,serif" font-size="14.00">samples = 227</text>
<text text-anchor="middle" x="845.5" y="-423.8" font-family="Times New Roman,serif" font-size="14.00">value = [165, 62]</text>
<text text-anchor="middle" x="845.5" y="-408.8" font-family="Times New Roman,serif" font-size="14.00">class = 악성</text>
</g>
<!-- 1 -->
<g id="node2" class="node"><title>1</title>
<polygon fill="#eb9e66" stroke="black" points="729,-365 618,-365 618,-297 729,-297 729,-365"/>
<text text-anchor="middle" x="673.5" y="-349.8" font-family="Times New Roman,serif" font-size="14.00">thal &lt;= 3.5</text>
<text text-anchor="middle" x="673.5" y="-334.8" font-family="Times New Roman,serif" font-size="14.00">samples = 193</text>
<text text-anchor="middle" x="673.5" y="-319.8" font-family="Times New Roman,serif" font-size="14.00">value = [157, 36]</text>
<text text-anchor="middle" x="673.5" y="-304.8" font-family="Times New Roman,serif" font-size="14.00">class = 악성</text>
</g>
<!-- 0&#45;&gt;1 -->
<g id="edge1" class="edge"><title>0&#45;&gt;1</title>
<path fill="none" stroke="black" d="M789.657,-400.884C773.117,-391.075 754.874,-380.257 737.843,-370.157"/>
<polygon fill="black" stroke="black" points="739.45,-367.041 729.063,-364.95 735.879,-373.062 739.45,-367.041"/>
<text text-anchor="middle" x="735.251" y="-385.472" font-family="Times New Roman,serif" font-size="14.00">True</text>
</g>
<!-- 16 -->
<g id="node17" class="node"><title>16</title>
<polygon fill="#76bbed" stroke="black" points="1061.5,-365 963.5,-365 963.5,-297 1061.5,-297 1061.5,-365"/>
<text text-anchor="middle" x="1012.5" y="-349.8" font-family="Times New Roman,serif" font-size="14.00">cp &lt;= 3.5</text>
<text text-anchor="middle" x="1012.5" y="-334.8" font-family="Times New Roman,serif" font-size="14.00">samples = 34</text>
<text text-anchor="middle" x="1012.5" y="-319.8" font-family="Times New Roman,serif" font-size="14.00">value = [8, 26]</text>
<text text-anchor="middle" x="1012.5" y="-304.8" font-family="Times New Roman,serif" font-size="14.00">class = 양성</text>
</g>
<!-- 0&#45;&gt;16 -->
<g id="edge16" class="edge"><title>0&#45;&gt;16</title>
<path fill="none" stroke="black" d="M899.72,-400.884C917.317,-390.136 936.901,-378.174 954.746,-367.275"/>
<polygon fill="black" stroke="black" points="956.64,-370.219 963.35,-362.02 952.991,-364.246 956.64,-370.219"/>
<text text-anchor="middle" x="957.478" y="-382.621" font-family="Times New Roman,serif" font-size="14.00">False</text>
</g>
<!-- 2 -->
<g id="node3" class="node"><title>2</title>
<polygon fill="#e78c4b" stroke="black" points="387,-261 276,-261 276,-193 387,-193 387,-261"/>
<text text-anchor="middle" x="331.5" y="-245.8" font-family="Times New Roman,serif" font-size="14.00">thalach &lt;= 110.0</text>
<text text-anchor="middle" x="331.5" y="-230.8" font-family="Times New Roman,serif" font-size="14.00">samples = 134</text>
<text text-anchor="middle" x="331.5" y="-215.8" font-family="Times New Roman,serif" font-size="14.00">value = [123, 11]</text>
<text text-anchor="middle" x="331.5" y="-200.8" font-family="Times New Roman,serif" font-size="14.00">class = 악성</text>
</g>
<!-- 1&#45;&gt;2 -->
<g id="edge2" class="edge"><title>1&#45;&gt;2</title>
<path fill="none" stroke="black" d="M617.791,-313.385C557.299,-295.344 460.777,-266.556 396.776,-247.468"/>
<polygon fill="black" stroke="black" points="397.769,-244.112 387.186,-244.608 395.768,-250.82 397.769,-244.112"/>
</g>
<!-- 9 -->
<g id="node10" class="node"><title>9</title>
<polygon fill="#f8decb" stroke="black" points="728,-261 619,-261 619,-193 728,-193 728,-261"/>
<text text-anchor="middle" x="673.5" y="-245.8" font-family="Times New Roman,serif" font-size="14.00">oldpeak &lt;= 0.85</text>
<text text-anchor="middle" x="673.5" y="-230.8" font-family="Times New Roman,serif" font-size="14.00">samples = 59</text>
<text text-anchor="middle" x="673.5" y="-215.8" font-family="Times New Roman,serif" font-size="14.00">value = [34, 25]</text>
<text text-anchor="middle" x="673.5" y="-200.8" font-family="Times New Roman,serif" font-size="14.00">class = 악성</text>
</g>
<!-- 1&#45;&gt;9 -->
<g id="edge9" class="edge"><title>1&#45;&gt;9</title>
<path fill="none" stroke="black" d="M673.5,-296.884C673.5,-288.778 673.5,-279.982 673.5,-271.472"/>
<polygon fill="black" stroke="black" points="677,-271.299 673.5,-261.299 670,-271.299 677,-271.299"/>
</g>
<!-- 3 -->
<g id="node4" class="node"><title>3</title>
<polygon fill="#b0d8f5" stroke="black" points="202,-157 107,-157 107,-89 202,-89 202,-157"/>
<text text-anchor="middle" x="154.5" y="-141.8" font-family="Times New Roman,serif" font-size="14.00">chol &lt;= 195.0</text>
<text text-anchor="middle" x="154.5" y="-126.8" font-family="Times New Roman,serif" font-size="14.00">samples = 8</text>
<text text-anchor="middle" x="154.5" y="-111.8" font-family="Times New Roman,serif" font-size="14.00">value = [3, 5]</text>
<text text-anchor="middle" x="154.5" y="-96.8" font-family="Times New Roman,serif" font-size="14.00">class = 양성</text>
</g>
<!-- 2&#45;&gt;3 -->
<g id="edge3" class="edge"><title>2&#45;&gt;3</title>
<path fill="none" stroke="black" d="M275.982,-194.006C255.223,-182.044 231.64,-168.454 210.811,-156.45"/>
<polygon fill="black" stroke="black" points="212.481,-153.373 202.069,-151.413 208.986,-159.438 212.481,-153.373"/>
</g>
<!-- 6 -->
<g id="node7" class="node"><title>6</title>
<polygon fill="#e68743" stroke="black" points="383.5,-157 279.5,-157 279.5,-89 383.5,-89 383.5,-157"/>
<text text-anchor="middle" x="331.5" y="-141.8" font-family="Times New Roman,serif" font-size="14.00">ca &lt;= 1.5</text>
<text text-anchor="middle" x="331.5" y="-126.8" font-family="Times New Roman,serif" font-size="14.00">samples = 126</text>
<text text-anchor="middle" x="331.5" y="-111.8" font-family="Times New Roman,serif" font-size="14.00">value = [120, 6]</text>
<text text-anchor="middle" x="331.5" y="-96.8" font-family="Times New Roman,serif" font-size="14.00">class = 악성</text>
</g>
<!-- 2&#45;&gt;6 -->
<g id="edge6" class="edge"><title>2&#45;&gt;6</title>
<path fill="none" stroke="black" d="M331.5,-192.884C331.5,-184.778 331.5,-175.982 331.5,-167.472"/>
<polygon fill="black" stroke="black" points="335,-167.299 331.5,-157.299 328,-167.299 335,-167.299"/>
</g>
<!-- 4 -->
<g id="node5" class="node"><title>4</title>
<polygon fill="#eeab7b" stroke="black" points="91,-53 0,-53 0,-0 91,-0 91,-53"/>
<text text-anchor="middle" x="45.5" y="-37.8" font-family="Times New Roman,serif" font-size="14.00">samples = 4</text>
<text text-anchor="middle" x="45.5" y="-22.8" font-family="Times New Roman,serif" font-size="14.00">value = [3, 1]</text>
<text text-anchor="middle" x="45.5" y="-7.8" font-family="Times New Roman,serif" font-size="14.00">class = 악성</text>
</g>
<!-- 3&#45;&gt;4 -->
<g id="edge4" class="edge"><title>3&#45;&gt;4</title>
<path fill="none" stroke="black" d="M116.377,-88.9485C105.509,-79.526 93.6828,-69.2731 82.8605,-59.8906"/>
<polygon fill="black" stroke="black" points="85.0342,-57.1428 75.1857,-53.2367 80.4488,-62.4319 85.0342,-57.1428"/>
</g>
<!-- 5 -->
<g id="node6" class="node"><title>5</title>
<polygon fill="#399de5" stroke="black" points="200,-53 109,-53 109,-0 200,-0 200,-53"/>
<text text-anchor="middle" x="154.5" y="-37.8" font-family="Times New Roman,serif" font-size="14.00">samples = 4</text>
<text text-anchor="middle" x="154.5" y="-22.8" font-family="Times New Roman,serif" font-size="14.00">value = [0, 4]</text>
<text text-anchor="middle" x="154.5" y="-7.8" font-family="Times New Roman,serif" font-size="14.00">class = 양성</text>
</g>
<!-- 3&#45;&gt;5 -->
<g id="edge5" class="edge"><title>3&#45;&gt;5</title>
<path fill="none" stroke="black" d="M154.5,-88.9485C154.5,-80.7153 154.5,-71.848 154.5,-63.4814"/>
<polygon fill="black" stroke="black" points="158,-63.2367 154.5,-53.2367 151,-63.2367 158,-63.2367"/>
</g>
<!-- 7 -->
<g id="node8" class="node"><title>7</title>
<polygon fill="#e5833d" stroke="black" points="322.5,-53 218.5,-53 218.5,-0 322.5,-0 322.5,-53"/>
<text text-anchor="middle" x="270.5" y="-37.8" font-family="Times New Roman,serif" font-size="14.00">samples = 111</text>
<text text-anchor="middle" x="270.5" y="-22.8" font-family="Times New Roman,serif" font-size="14.00">value = [109, 2]</text>
<text text-anchor="middle" x="270.5" y="-7.8" font-family="Times New Roman,serif" font-size="14.00">class = 악성</text>
</g>
<!-- 6&#45;&gt;7 -->
<g id="edge7" class="edge"><title>6&#45;&gt;7</title>
<path fill="none" stroke="black" d="M310.165,-88.9485C304.496,-80.1664 298.362,-70.6629 292.65,-61.815"/>
<polygon fill="black" stroke="black" points="295.477,-59.7402 287.113,-53.2367 289.596,-63.5365 295.477,-59.7402"/>
</g>
<!-- 8 -->
<g id="node9" class="node"><title>8</title>
<polygon fill="#eeaf81" stroke="black" points="438.5,-53 340.5,-53 340.5,-0 438.5,-0 438.5,-53"/>
<text text-anchor="middle" x="389.5" y="-37.8" font-family="Times New Roman,serif" font-size="14.00">samples = 15</text>
<text text-anchor="middle" x="389.5" y="-22.8" font-family="Times New Roman,serif" font-size="14.00">value = [11, 4]</text>
<text text-anchor="middle" x="389.5" y="-7.8" font-family="Times New Roman,serif" font-size="14.00">class = 악성</text>
</g>
<!-- 6&#45;&gt;8 -->
<g id="edge8" class="edge"><title>6&#45;&gt;8</title>
<path fill="none" stroke="black" d="M351.786,-88.9485C357.176,-80.1664 363.008,-70.6629 368.439,-61.815"/>
<polygon fill="black" stroke="black" points="371.456,-63.5903 373.704,-53.2367 365.49,-59.9287 371.456,-63.5903"/>
</g>
<!-- 10 -->
<g id="node11" class="node"><title>10</title>
<polygon fill="#eca36f" stroke="black" points="662.5,-157 564.5,-157 564.5,-89 662.5,-89 662.5,-157"/>
<text text-anchor="middle" x="613.5" y="-141.8" font-family="Times New Roman,serif" font-size="14.00">ca &lt;= 0.5</text>
<text text-anchor="middle" x="613.5" y="-126.8" font-family="Times New Roman,serif" font-size="14.00">samples = 28</text>
<text text-anchor="middle" x="613.5" y="-111.8" font-family="Times New Roman,serif" font-size="14.00">value = [22, 6]</text>
<text text-anchor="middle" x="613.5" y="-96.8" font-family="Times New Roman,serif" font-size="14.00">class = 악성</text>
</g>
<!-- 9&#45;&gt;10 -->
<g id="edge10" class="edge"><title>9&#45;&gt;10</title>
<path fill="none" stroke="black" d="M654.02,-192.884C648.99,-184.332 643.508,-175.013 638.248,-166.072"/>
<polygon fill="black" stroke="black" points="641.175,-164.144 633.088,-157.299 635.141,-167.693 641.175,-164.144"/>
</g>
<!-- 13 -->
<g id="node14" class="node"><title>13</title>
<polygon fill="#b6dbf5" stroke="black" points="784.5,-157 680.5,-157 680.5,-89 784.5,-89 784.5,-157"/>
<text text-anchor="middle" x="732.5" y="-141.8" font-family="Times New Roman,serif" font-size="14.00">cp &lt;= 2.0</text>
<text text-anchor="middle" x="732.5" y="-126.8" font-family="Times New Roman,serif" font-size="14.00">samples = 31</text>
<text text-anchor="middle" x="732.5" y="-111.8" font-family="Times New Roman,serif" font-size="14.00">value = [12, 19]</text>
<text text-anchor="middle" x="732.5" y="-96.8" font-family="Times New Roman,serif" font-size="14.00">class = 양성</text>
</g>
<!-- 9&#45;&gt;13 -->
<g id="edge13" class="edge"><title>9&#45;&gt;13</title>
<path fill="none" stroke="black" d="M692.656,-192.884C697.602,-184.332 702.992,-175.013 708.164,-166.072"/>
<polygon fill="black" stroke="black" points="711.261,-167.708 713.239,-157.299 705.202,-164.203 711.261,-167.708"/>
</g>
<!-- 11 -->
<g id="node12" class="node"><title>11</title>
<polygon fill="#e78946" stroke="black" points="554.5,-53 456.5,-53 456.5,-0 554.5,-0 554.5,-53"/>
<text text-anchor="middle" x="505.5" y="-37.8" font-family="Times New Roman,serif" font-size="14.00">samples = 16</text>
<text text-anchor="middle" x="505.5" y="-22.8" font-family="Times New Roman,serif" font-size="14.00">value = [15, 1]</text>
<text text-anchor="middle" x="505.5" y="-7.8" font-family="Times New Roman,serif" font-size="14.00">class = 악성</text>
</g>
<!-- 10&#45;&gt;11 -->
<g id="edge11" class="edge"><title>10&#45;&gt;11</title>
<path fill="none" stroke="black" d="M575.727,-88.9485C564.958,-79.526 553.241,-69.2731 542.518,-59.8906"/>
<polygon fill="black" stroke="black" points="544.744,-57.1878 534.913,-53.2367 540.134,-62.4558 544.744,-57.1878"/>
</g>
<!-- 12 -->
<g id="node13" class="node"><title>12</title>
<polygon fill="#f8dbc6" stroke="black" points="664,-53 573,-53 573,-0 664,-0 664,-53"/>
<text text-anchor="middle" x="618.5" y="-37.8" font-family="Times New Roman,serif" font-size="14.00">samples = 12</text>
<text text-anchor="middle" x="618.5" y="-22.8" font-family="Times New Roman,serif" font-size="14.00">value = [7, 5]</text>
<text text-anchor="middle" x="618.5" y="-7.8" font-family="Times New Roman,serif" font-size="14.00">class = 악성</text>
</g>
<!-- 10&#45;&gt;12 -->
<g id="edge12" class="edge"><title>10&#45;&gt;12</title>
<path fill="none" stroke="black" d="M615.249,-88.9485C615.684,-80.7153 616.154,-71.848 616.596,-63.4814"/>
<polygon fill="black" stroke="black" points="620.105,-63.4077 617.138,-53.2367 613.115,-63.0378 620.105,-63.4077"/>
</g>
<!-- 14 -->
<g id="node15" class="node"><title>14</title>
<polygon fill="#e58139" stroke="black" points="773,-53 682,-53 682,-0 773,-0 773,-53"/>
<text text-anchor="middle" x="727.5" y="-37.8" font-family="Times New Roman,serif" font-size="14.00">samples = 2</text>
<text text-anchor="middle" x="727.5" y="-22.8" font-family="Times New Roman,serif" font-size="14.00">value = [2, 0]</text>
<text text-anchor="middle" x="727.5" y="-7.8" font-family="Times New Roman,serif" font-size="14.00">class = 악성</text>
</g>
<!-- 13&#45;&gt;14 -->
<g id="edge14" class="edge"><title>13&#45;&gt;14</title>
<path fill="none" stroke="black" d="M730.751,-88.9485C730.316,-80.7153 729.846,-71.848 729.404,-63.4814"/>
<polygon fill="black" stroke="black" points="732.885,-63.0378 728.862,-53.2367 725.895,-63.4077 732.885,-63.0378"/>
</g>
<!-- 15 -->
<g id="node16" class="node"><title>15</title>
<polygon fill="#a1d1f3" stroke="black" points="895.5,-53 791.5,-53 791.5,-0 895.5,-0 895.5,-53"/>
<text text-anchor="middle" x="843.5" y="-37.8" font-family="Times New Roman,serif" font-size="14.00">samples = 29</text>
<text text-anchor="middle" x="843.5" y="-22.8" font-family="Times New Roman,serif" font-size="14.00">value = [10, 19]</text>
<text text-anchor="middle" x="843.5" y="-7.8" font-family="Times New Roman,serif" font-size="14.00">class = 양성</text>
</g>
<!-- 13&#45;&gt;15 -->
<g id="edge15" class="edge"><title>13&#45;&gt;15</title>
<path fill="none" stroke="black" d="M771.322,-88.9485C782.39,-79.526 794.433,-69.2731 805.454,-59.8906"/>
<polygon fill="black" stroke="black" points="807.924,-62.3842 813.27,-53.2367 803.386,-57.0542 807.924,-62.3842"/>
</g>
<!-- 17 -->
<g id="node18" class="node"><title>17</title>
<polygon fill="#fae6d7" stroke="black" points="1058,-261 967,-261 967,-193 1058,-193 1058,-261"/>
<text text-anchor="middle" x="1012.5" y="-245.8" font-family="Times New Roman,serif" font-size="14.00">ca &lt;= 0.5</text>
<text text-anchor="middle" x="1012.5" y="-230.8" font-family="Times New Roman,serif" font-size="14.00">samples = 9</text>
<text text-anchor="middle" x="1012.5" y="-215.8" font-family="Times New Roman,serif" font-size="14.00">value = [5, 4]</text>
<text text-anchor="middle" x="1012.5" y="-200.8" font-family="Times New Roman,serif" font-size="14.00">class = 악성</text>
</g>
<!-- 16&#45;&gt;17 -->
<g id="edge17" class="edge"><title>16&#45;&gt;17</title>
<path fill="none" stroke="black" d="M1012.5,-296.884C1012.5,-288.778 1012.5,-279.982 1012.5,-271.472"/>
<polygon fill="black" stroke="black" points="1016,-271.299 1012.5,-261.299 1009,-271.299 1016,-271.299"/>
</g>
<!-- 22 -->
<g id="node23" class="node"><title>22</title>
<polygon fill="#54aae9" stroke="black" points="1245.5,-261 1129.5,-261 1129.5,-193 1245.5,-193 1245.5,-261"/>
<text text-anchor="middle" x="1187.5" y="-245.8" font-family="Times New Roman,serif" font-size="14.00">trestbps &lt;= 107.0</text>
<text text-anchor="middle" x="1187.5" y="-230.8" font-family="Times New Roman,serif" font-size="14.00">samples = 25</text>
<text text-anchor="middle" x="1187.5" y="-215.8" font-family="Times New Roman,serif" font-size="14.00">value = [3, 22]</text>
<text text-anchor="middle" x="1187.5" y="-200.8" font-family="Times New Roman,serif" font-size="14.00">class = 양성</text>
</g>
<!-- 16&#45;&gt;22 -->
<g id="edge22" class="edge"><title>16&#45;&gt;22</title>
<path fill="none" stroke="black" d="M1061.71,-301.316C1080.38,-290.434 1101.95,-277.864 1121.89,-266.24"/>
<polygon fill="black" stroke="black" points="1123.75,-269.209 1130.63,-261.15 1120.22,-263.161 1123.75,-269.209"/>
</g>
<!-- 18 -->
<g id="node19" class="node"><title>18</title>
<polygon fill="#ea9a61" stroke="black" points="1014.5,-157 904.5,-157 904.5,-89 1014.5,-89 1014.5,-157"/>
<text text-anchor="middle" x="959.5" y="-141.8" font-family="Times New Roman,serif" font-size="14.00">thalach &lt;= 174.0</text>
<text text-anchor="middle" x="959.5" y="-126.8" font-family="Times New Roman,serif" font-size="14.00">samples = 6</text>
<text text-anchor="middle" x="959.5" y="-111.8" font-family="Times New Roman,serif" font-size="14.00">value = [5, 1]</text>
<text text-anchor="middle" x="959.5" y="-96.8" font-family="Times New Roman,serif" font-size="14.00">class = 악성</text>
</g>
<!-- 17&#45;&gt;18 -->
<g id="edge18" class="edge"><title>17&#45;&gt;18</title>
<path fill="none" stroke="black" d="M995.292,-192.884C990.895,-184.422 986.108,-175.207 981.506,-166.352"/>
<polygon fill="black" stroke="black" points="984.519,-164.559 976.803,-157.299 978.308,-167.787 984.519,-164.559"/>
</g>
<!-- 21 -->
<g id="node22" class="node"><title>21</title>
<polygon fill="#399de5" stroke="black" points="1124,-149.5 1033,-149.5 1033,-96.5 1124,-96.5 1124,-149.5"/>
<text text-anchor="middle" x="1078.5" y="-134.3" font-family="Times New Roman,serif" font-size="14.00">samples = 3</text>
<text text-anchor="middle" x="1078.5" y="-119.3" font-family="Times New Roman,serif" font-size="14.00">value = [0, 3]</text>
<text text-anchor="middle" x="1078.5" y="-104.3" font-family="Times New Roman,serif" font-size="14.00">class = 양성</text>
</g>
<!-- 17&#45;&gt;21 -->
<g id="edge21" class="edge"><title>17&#45;&gt;21</title>
<path fill="none" stroke="black" d="M1033.93,-192.884C1041.12,-181.776 1049.14,-169.372 1056.38,-158.184"/>
<polygon fill="black" stroke="black" points="1059.49,-159.817 1061.99,-149.52 1053.62,-156.014 1059.49,-159.817"/>
</g>
<!-- 19 -->
<g id="node20" class="node"><title>19</title>
<polygon fill="#e58139" stroke="black" points="1005,-53 914,-53 914,-0 1005,-0 1005,-53"/>
<text text-anchor="middle" x="959.5" y="-37.8" font-family="Times New Roman,serif" font-size="14.00">samples = 5</text>
<text text-anchor="middle" x="959.5" y="-22.8" font-family="Times New Roman,serif" font-size="14.00">value = [5, 0]</text>
<text text-anchor="middle" x="959.5" y="-7.8" font-family="Times New Roman,serif" font-size="14.00">class = 악성</text>
</g>
<!-- 18&#45;&gt;19 -->
<g id="edge19" class="edge"><title>18&#45;&gt;19</title>
<path fill="none" stroke="black" d="M959.5,-88.9485C959.5,-80.7153 959.5,-71.848 959.5,-63.4814"/>
<polygon fill="black" stroke="black" points="963,-63.2367 959.5,-53.2367 956,-63.2367 963,-63.2367"/>
</g>
<!-- 20 -->
<g id="node21" class="node"><title>20</title>
<polygon fill="#399de5" stroke="black" points="1114,-53 1023,-53 1023,-0 1114,-0 1114,-53"/>
<text text-anchor="middle" x="1068.5" y="-37.8" font-family="Times New Roman,serif" font-size="14.00">samples = 1</text>
<text text-anchor="middle" x="1068.5" y="-22.8" font-family="Times New Roman,serif" font-size="14.00">value = [0, 1]</text>
<text text-anchor="middle" x="1068.5" y="-7.8" font-family="Times New Roman,serif" font-size="14.00">class = 양성</text>
</g>
<!-- 18&#45;&gt;20 -->
<g id="edge20" class="edge"><title>18&#45;&gt;20</title>
<path fill="none" stroke="black" d="M997.623,-88.9485C1008.49,-79.526 1020.32,-69.2731 1031.14,-59.8906"/>
<polygon fill="black" stroke="black" points="1033.55,-62.4319 1038.81,-53.2367 1028.97,-57.1428 1033.55,-62.4319"/>
</g>
<!-- 23 -->
<g id="node24" class="node"><title>23</title>
<polygon fill="#e58139" stroke="black" points="1233,-149.5 1142,-149.5 1142,-96.5 1233,-96.5 1233,-149.5"/>
<text text-anchor="middle" x="1187.5" y="-134.3" font-family="Times New Roman,serif" font-size="14.00">samples = 1</text>
<text text-anchor="middle" x="1187.5" y="-119.3" font-family="Times New Roman,serif" font-size="14.00">value = [1, 0]</text>
<text text-anchor="middle" x="1187.5" y="-104.3" font-family="Times New Roman,serif" font-size="14.00">class = 악성</text>
</g>
<!-- 22&#45;&gt;23 -->
<g id="edge23" class="edge"><title>22&#45;&gt;23</title>
<path fill="none" stroke="black" d="M1187.5,-192.884C1187.5,-182.326 1187.5,-170.597 1187.5,-159.854"/>
<polygon fill="black" stroke="black" points="1191,-159.52 1187.5,-149.52 1184,-159.52 1191,-159.52"/>
</g>
<!-- 24 -->
<g id="node25" class="node"><title>24</title>
<polygon fill="#4ba6e7" stroke="black" points="1367.5,-157 1251.5,-157 1251.5,-89 1367.5,-89 1367.5,-157"/>
<text text-anchor="middle" x="1309.5" y="-141.8" font-family="Times New Roman,serif" font-size="14.00">trestbps &lt;= 127.5</text>
<text text-anchor="middle" x="1309.5" y="-126.8" font-family="Times New Roman,serif" font-size="14.00">samples = 24</text>
<text text-anchor="middle" x="1309.5" y="-111.8" font-family="Times New Roman,serif" font-size="14.00">value = [2, 22]</text>
<text text-anchor="middle" x="1309.5" y="-96.8" font-family="Times New Roman,serif" font-size="14.00">class = 양성</text>
</g>
<!-- 22&#45;&gt;24 -->
<g id="edge24" class="edge"><title>22&#45;&gt;24</title>
<path fill="none" stroke="black" d="M1227.11,-192.884C1238.19,-183.62 1250.35,-173.455 1261.84,-163.845"/>
<polygon fill="black" stroke="black" points="1264.24,-166.399 1269.67,-157.299 1259.75,-161.028 1264.24,-166.399"/>
</g>
<!-- 25 -->
<g id="node26" class="node"><title>25</title>
<polygon fill="#88c4ef" stroke="black" points="1299,-53 1208,-53 1208,-0 1299,-0 1299,-53"/>
<text text-anchor="middle" x="1253.5" y="-37.8" font-family="Times New Roman,serif" font-size="14.00">samples = 7</text>
<text text-anchor="middle" x="1253.5" y="-22.8" font-family="Times New Roman,serif" font-size="14.00">value = [2, 5]</text>
<text text-anchor="middle" x="1253.5" y="-7.8" font-family="Times New Roman,serif" font-size="14.00">class = 양성</text>
</g>
<!-- 24&#45;&gt;25 -->
<g id="edge25" class="edge"><title>24&#45;&gt;25</title>
<path fill="none" stroke="black" d="M1289.91,-88.9485C1284.76,-80.2579 1279.2,-70.8608 1274,-62.0917"/>
<polygon fill="black" stroke="black" points="1276.86,-60.0553 1268.75,-53.2367 1270.84,-63.624 1276.86,-60.0553"/>
</g>
<!-- 26 -->
<g id="node27" class="node"><title>26</title>
<polygon fill="#399de5" stroke="black" points="1415.5,-53 1317.5,-53 1317.5,-0 1415.5,-0 1415.5,-53"/>
<text text-anchor="middle" x="1366.5" y="-37.8" font-family="Times New Roman,serif" font-size="14.00">samples = 17</text>
<text text-anchor="middle" x="1366.5" y="-22.8" font-family="Times New Roman,serif" font-size="14.00">value = [0, 17]</text>
<text text-anchor="middle" x="1366.5" y="-7.8" font-family="Times New Roman,serif" font-size="14.00">class = 양성</text>
</g>
<!-- 24&#45;&gt;26 -->
<g id="edge26" class="edge"><title>24&#45;&gt;26</title>
<path fill="none" stroke="black" d="M1329.44,-88.9485C1334.73,-80.1664 1340.47,-70.6629 1345.8,-61.815"/>
<polygon fill="black" stroke="black" points="1348.81,-63.6074 1350.98,-53.2367 1342.81,-59.9919 1348.81,-63.6074"/>
</g>
</g>
</svg>
