<?xml version="1.0" encoding="UTF-8" standalone="no"?>
<!DOCTYPE svg PUBLIC "-//W3C//DTD SVG 1.1//EN"
 "http://www.w3.org/Graphics/SVG/1.1/DTD/svg11.dtd">
<!-- Generated by graphviz version 2.38.0 (20140413.2041)
 -->
<!-- Title: Tree Pages: 1 -->
<svg width="1235pt" height="581pt"
 viewBox="0.00 0.00 1235.00 581.00" xmlns="http://www.w3.org/2000/svg" xmlns:xlink="http://www.w3.org/1999/xlink">
<g id="graph0" class="graph" transform="scale(1 1) rotate(0) translate(4 577)">
<title>Tree</title>
<polygon fill="white" stroke="none" points="-4,4 -4,-577 1231,-577 1231,4 -4,4"/>
<!-- 0 -->
<g id="node1" class="node"><title>0</title>
<polygon fill="#afd7f4" stroke="black" points="610.5,-573 445.5,-573 445.5,-505 610.5,-505 610.5,-573"/>
<text text-anchor="middle" x="528" y="-557.8" font-family="Times New Roman,serif" font-size="14.00">worst perimeter &lt;= 105.95</text>
<text text-anchor="middle" x="528" y="-542.8" font-family="Times New Roman,serif" font-size="14.00">samples = 426</text>
<text text-anchor="middle" x="528" y="-527.8" font-family="Times New Roman,serif" font-size="14.00">value = [159, 267]</text>
<text text-anchor="middle" x="528" y="-512.8" font-family="Times New Roman,serif" font-size="14.00">class = 양성</text>
</g>
<!-- 1 -->
<g id="node2" class="node"><title>1</title>
<polygon fill="#41a1e6" stroke="black" points="507.5,-469 316.5,-469 316.5,-401 507.5,-401 507.5,-469"/>
<text text-anchor="middle" x="412" y="-453.8" font-family="Times New Roman,serif" font-size="14.00">worst concave points &lt;= 0.142</text>
<text text-anchor="middle" x="412" y="-438.8" font-family="Times New Roman,serif" font-size="14.00">samples = 257</text>
<text text-anchor="middle" x="412" y="-423.8" font-family="Times New Roman,serif" font-size="14.00">value = [10, 247]</text>
<text text-anchor="middle" x="412" y="-408.8" font-family="Times New Roman,serif" font-size="14.00">class = 양성</text>
</g>
<!-- 0&#45;&gt;1 -->
<g id="edge1" class="edge"><title>0&#45;&gt;1</title>
<path fill="none" stroke="black" d="M490.338,-504.884C479.904,-495.709 468.465,-485.65 457.63,-476.123"/>
<polygon fill="black" stroke="black" points="459.691,-473.274 449.87,-469.299 455.068,-478.531 459.691,-473.274"/>
<text text-anchor="middle" x="451.472" y="-490.548" font-family="Times New Roman,serif" font-size="14.00">True</text>
</g>
<!-- 14 -->
<g id="node15" class="node"><title>14</title>
<polygon fill="#e89254" stroke="black" points="727.5,-469 562.5,-469 562.5,-401 727.5,-401 727.5,-469"/>
<text text-anchor="middle" x="645" y="-453.8" font-family="Times New Roman,serif" font-size="14.00">worst perimeter &lt;= 114.45</text>
<text text-anchor="middle" x="645" y="-438.8" font-family="Times New Roman,serif" font-size="14.00">samples = 169</text>
<text text-anchor="middle" x="645" y="-423.8" font-family="Times New Roman,serif" font-size="14.00">value = [149, 20]</text>
<text text-anchor="middle" x="645" y="-408.8" font-family="Times New Roman,serif" font-size="14.00">class = 악성</text>
</g>
<!-- 0&#45;&gt;14 -->
<g id="edge14" class="edge"><title>0&#45;&gt;14</title>
<path fill="none" stroke="black" d="M565.987,-504.884C576.51,-495.709 588.048,-485.65 598.977,-476.123"/>
<polygon fill="black" stroke="black" points="601.566,-478.509 606.804,-469.299 596.966,-473.233 601.566,-478.509"/>
<text text-anchor="middle" x="605.095" y="-490.541" font-family="Times New Roman,serif" font-size="14.00">False</text>
</g>
<!-- 2 -->
<g id="node3" class="node"><title>2</title>
<polygon fill="#3b9ee5" stroke="black" points="273,-365 133,-365 133,-297 273,-297 273,-365"/>
<text text-anchor="middle" x="203" y="-349.8" font-family="Times New Roman,serif" font-size="14.00">worst radius &lt;= 15.78</text>
<text text-anchor="middle" x="203" y="-334.8" font-family="Times New Roman,serif" font-size="14.00">samples = 243</text>
<text text-anchor="middle" x="203" y="-319.8" font-family="Times New Roman,serif" font-size="14.00">value = [2, 241]</text>
<text text-anchor="middle" x="203" y="-304.8" font-family="Times New Roman,serif" font-size="14.00">class = 양성</text>
</g>
<!-- 1&#45;&gt;2 -->
<g id="edge2" class="edge"><title>1&#45;&gt;2</title>
<path fill="none" stroke="black" d="M344.144,-400.884C323.69,-390.901 301.091,-379.872 280.083,-369.619"/>
<polygon fill="black" stroke="black" points="281.395,-366.365 270.873,-365.125 278.325,-372.656 281.395,-366.365"/>
</g>
<!-- 7 -->
<g id="node8" class="node"><title>7</title>
<polygon fill="#f8e0ce" stroke="black" points="495.5,-365 328.5,-365 328.5,-297 495.5,-297 495.5,-365"/>
<text text-anchor="middle" x="412" y="-349.8" font-family="Times New Roman,serif" font-size="14.00">worst smoothness &lt;= 0.17</text>
<text text-anchor="middle" x="412" y="-334.8" font-family="Times New Roman,serif" font-size="14.00">samples = 14</text>
<text text-anchor="middle" x="412" y="-319.8" font-family="Times New Roman,serif" font-size="14.00">value = [8, 6]</text>
<text text-anchor="middle" x="412" y="-304.8" font-family="Times New Roman,serif" font-size="14.00">class = 악성</text>
</g>
<!-- 1&#45;&gt;7 -->
<g id="edge7" class="edge"><title>1&#45;&gt;7</title>
<path fill="none" stroke="black" d="M412,-400.884C412,-392.778 412,-383.982 412,-375.472"/>
<polygon fill="black" stroke="black" points="415.5,-375.299 412,-365.299 408.5,-375.299 415.5,-375.299"/>
</g>
<!-- 3 -->
<g id="node4" class="node"><title>3</title>
<polygon fill="#399de5" stroke="black" points="104,-253.5 0,-253.5 0,-200.5 104,-200.5 104,-253.5"/>
<text text-anchor="middle" x="52" y="-238.3" font-family="Times New Roman,serif" font-size="14.00">samples = 231</text>
<text text-anchor="middle" x="52" y="-223.3" font-family="Times New Roman,serif" font-size="14.00">value = [0, 231]</text>
<text text-anchor="middle" x="52" y="-208.3" font-family="Times New Roman,serif" font-size="14.00">class = 양성</text>
</g>
<!-- 2&#45;&gt;3 -->
<g id="edge3" class="edge"><title>2&#45;&gt;3</title>
<path fill="none" stroke="black" d="M153.975,-296.884C136.065,-284.786 115.88,-271.151 98.2234,-259.224"/>
<polygon fill="black" stroke="black" points="100.025,-256.217 89.7795,-253.52 96.1069,-262.018 100.025,-256.217"/>
</g>
<!-- 4 -->
<g id="node5" class="node"><title>4</title>
<polygon fill="#61b1ea" stroke="black" points="283.5,-261 122.5,-261 122.5,-193 283.5,-193 283.5,-261"/>
<text text-anchor="middle" x="203" y="-245.8" font-family="Times New Roman,serif" font-size="14.00">worst concavity &lt;= 0.189</text>
<text text-anchor="middle" x="203" y="-230.8" font-family="Times New Roman,serif" font-size="14.00">samples = 12</text>
<text text-anchor="middle" x="203" y="-215.8" font-family="Times New Roman,serif" font-size="14.00">value = [2, 10]</text>
<text text-anchor="middle" x="203" y="-200.8" font-family="Times New Roman,serif" font-size="14.00">class = 양성</text>
</g>
<!-- 2&#45;&gt;4 -->
<g id="edge4" class="edge"><title>2&#45;&gt;4</title>
<path fill="none" stroke="black" d="M203,-296.884C203,-288.778 203,-279.982 203,-271.472"/>
<polygon fill="black" stroke="black" points="206.5,-271.299 203,-261.299 199.5,-271.299 206.5,-271.299"/>
</g>
<!-- 5 -->
<g id="node6" class="node"><title>5</title>
<polygon fill="#399de5" stroke="black" points="139,-149.5 41,-149.5 41,-96.5 139,-96.5 139,-149.5"/>
<text text-anchor="middle" x="90" y="-134.3" font-family="Times New Roman,serif" font-size="14.00">samples = 10</text>
<text text-anchor="middle" x="90" y="-119.3" font-family="Times New Roman,serif" font-size="14.00">value = [0, 10]</text>
<text text-anchor="middle" x="90" y="-104.3" font-family="Times New Roman,serif" font-size="14.00">class = 양성</text>
</g>
<!-- 4&#45;&gt;5 -->
<g id="edge5" class="edge"><title>4&#45;&gt;5</title>
<path fill="none" stroke="black" d="M166.312,-192.884C153.397,-181.226 138.901,-168.141 126.04,-156.532"/>
<polygon fill="black" stroke="black" points="128.04,-153.622 118.272,-149.52 123.35,-158.819 128.04,-153.622"/>
</g>
<!-- 6 -->
<g id="node7" class="node"><title>6</title>
<polygon fill="#e58139" stroke="black" points="248.5,-149.5 157.5,-149.5 157.5,-96.5 248.5,-96.5 248.5,-149.5"/>
<text text-anchor="middle" x="203" y="-134.3" font-family="Times New Roman,serif" font-size="14.00">samples = 2</text>
<text text-anchor="middle" x="203" y="-119.3" font-family="Times New Roman,serif" font-size="14.00">value = [2, 0]</text>
<text text-anchor="middle" x="203" y="-104.3" font-family="Times New Roman,serif" font-size="14.00">class = 악성</text>
</g>
<!-- 4&#45;&gt;6 -->
<g id="edge6" class="edge"><title>4&#45;&gt;6</title>
<path fill="none" stroke="black" d="M203,-192.884C203,-182.326 203,-170.597 203,-159.854"/>
<polygon fill="black" stroke="black" points="206.5,-159.52 203,-149.52 199.5,-159.52 206.5,-159.52"/>
</g>
<!-- 8 -->
<g id="node9" class="node"><title>8</title>
<polygon fill="#7bbeee" stroke="black" points="426.5,-261 301.5,-261 301.5,-193 426.5,-193 426.5,-261"/>
<text text-anchor="middle" x="364" y="-245.8" font-family="Times New Roman,serif" font-size="14.00">area error &lt;= 20.99</text>
<text text-anchor="middle" x="364" y="-230.8" font-family="Times New Roman,serif" font-size="14.00">samples = 8</text>
<text text-anchor="middle" x="364" y="-215.8" font-family="Times New Roman,serif" font-size="14.00">value = [2, 6]</text>
<text text-anchor="middle" x="364" y="-200.8" font-family="Times New Roman,serif" font-size="14.00">class = 양성</text>
</g>
<!-- 7&#45;&gt;8 -->
<g id="edge8" class="edge"><title>7&#45;&gt;8</title>
<path fill="none" stroke="black" d="M396.416,-296.884C392.434,-288.422 388.098,-279.207 383.93,-270.352"/>
<polygon fill="black" stroke="black" points="387.095,-268.857 379.67,-261.299 380.761,-271.838 387.095,-268.857"/>
</g>
<!-- 13 -->
<g id="node14" class="node"><title>13</title>
<polygon fill="#e58139" stroke="black" points="535.5,-253.5 444.5,-253.5 444.5,-200.5 535.5,-200.5 535.5,-253.5"/>
<text text-anchor="middle" x="490" y="-238.3" font-family="Times New Roman,serif" font-size="14.00">samples = 6</text>
<text text-anchor="middle" x="490" y="-223.3" font-family="Times New Roman,serif" font-size="14.00">value = [6, 0]</text>
<text text-anchor="middle" x="490" y="-208.3" font-family="Times New Roman,serif" font-size="14.00">class = 악성</text>
</g>
<!-- 7&#45;&gt;13 -->
<g id="edge13" class="edge"><title>7&#45;&gt;13</title>
<path fill="none" stroke="black" d="M437.324,-296.884C445.987,-285.556 455.68,-272.88 464.367,-261.521"/>
<polygon fill="black" stroke="black" points="467.19,-263.59 470.485,-253.52 461.63,-259.337 467.19,-263.59"/>
</g>
<!-- 9 -->
<g id="node10" class="node"><title>9</title>
<polygon fill="#399de5" stroke="black" points="357.5,-149.5 266.5,-149.5 266.5,-96.5 357.5,-96.5 357.5,-149.5"/>
<text text-anchor="middle" x="312" y="-134.3" font-family="Times New Roman,serif" font-size="14.00">samples = 5</text>
<text text-anchor="middle" x="312" y="-119.3" font-family="Times New Roman,serif" font-size="14.00">value = [0, 5]</text>
<text text-anchor="middle" x="312" y="-104.3" font-family="Times New Roman,serif" font-size="14.00">class = 양성</text>
</g>
<!-- 8&#45;&gt;9 -->
<g id="edge9" class="edge"><title>8&#45;&gt;9</title>
<path fill="none" stroke="black" d="M347.117,-192.884C341.51,-181.886 335.256,-169.617 329.597,-158.517"/>
<polygon fill="black" stroke="black" points="332.67,-156.839 325.01,-149.52 326.434,-160.019 332.67,-156.839"/>
</g>
<!-- 10 -->
<g id="node11" class="node"><title>10</title>
<polygon fill="#f2c09c" stroke="black" points="548.5,-157 375.5,-157 375.5,-89 548.5,-89 548.5,-157"/>
<text text-anchor="middle" x="462" y="-141.8" font-family="Times New Roman,serif" font-size="14.00">worst smoothness &lt;= 0.134</text>
<text text-anchor="middle" x="462" y="-126.8" font-family="Times New Roman,serif" font-size="14.00">samples = 3</text>
<text text-anchor="middle" x="462" y="-111.8" font-family="Times New Roman,serif" font-size="14.00">value = [2, 1]</text>
<text text-anchor="middle" x="462" y="-96.8" font-family="Times New Roman,serif" font-size="14.00">class = 악성</text>
</g>
<!-- 8&#45;&gt;10 -->
<g id="edge10" class="edge"><title>8&#45;&gt;10</title>
<path fill="none" stroke="black" d="M395.818,-192.884C404.461,-183.887 413.922,-174.041 422.917,-164.678"/>
<polygon fill="black" stroke="black" points="425.602,-166.935 430.006,-157.299 420.554,-162.086 425.602,-166.935"/>
</g>
<!-- 11 -->
<g id="node12" class="node"><title>11</title>
<polygon fill="#399de5" stroke="black" points="398.5,-53 307.5,-53 307.5,-0 398.5,-0 398.5,-53"/>
<text text-anchor="middle" x="353" y="-37.8" font-family="Times New Roman,serif" font-size="14.00">samples = 1</text>
<text text-anchor="middle" x="353" y="-22.8" font-family="Times New Roman,serif" font-size="14.00">value = [0, 1]</text>
<text text-anchor="middle" x="353" y="-7.8" font-family="Times New Roman,serif" font-size="14.00">class = 양성</text>
</g>
<!-- 10&#45;&gt;11 -->
<g id="edge11" class="edge"><title>10&#45;&gt;11</title>
<path fill="none" stroke="black" d="M423.877,-88.9485C413.009,-79.526 401.183,-69.2731 390.361,-59.8906"/>
<polygon fill="black" stroke="black" points="392.534,-57.1428 382.686,-53.2367 387.949,-62.4319 392.534,-57.1428"/>
</g>
<!-- 12 -->
<g id="node13" class="node"><title>12</title>
<polygon fill="#e58139" stroke="black" points="507.5,-53 416.5,-53 416.5,-0 507.5,-0 507.5,-53"/>
<text text-anchor="middle" x="462" y="-37.8" font-family="Times New Roman,serif" font-size="14.00">samples = 2</text>
<text text-anchor="middle" x="462" y="-22.8" font-family="Times New Roman,serif" font-size="14.00">value = [2, 0]</text>
<text text-anchor="middle" x="462" y="-7.8" font-family="Times New Roman,serif" font-size="14.00">class = 악성</text>
</g>
<!-- 10&#45;&gt;12 -->
<g id="edge12" class="edge"><title>10&#45;&gt;12</title>
<path fill="none" stroke="black" d="M462,-88.9485C462,-80.7153 462,-71.848 462,-63.4814"/>
<polygon fill="black" stroke="black" points="465.5,-63.2367 462,-53.2367 458.5,-63.2367 465.5,-63.2367"/>
</g>
<!-- 15 -->
<g id="node16" class="node"><title>15</title>
<polygon fill="#fbede3" stroke="black" points="712,-365 578,-365 578,-297 712,-297 712,-365"/>
<text text-anchor="middle" x="645" y="-349.8" font-family="Times New Roman,serif" font-size="14.00">mean area &lt;= 614.15</text>
<text text-anchor="middle" x="645" y="-334.8" font-family="Times New Roman,serif" font-size="14.00">samples = 39</text>
<text text-anchor="middle" x="645" y="-319.8" font-family="Times New Roman,serif" font-size="14.00">value = [21, 18]</text>
<text text-anchor="middle" x="645" y="-304.8" font-family="Times New Roman,serif" font-size="14.00">class = 악성</text>
</g>
<!-- 14&#45;&gt;15 -->
<g id="edge15" class="edge"><title>14&#45;&gt;15</title>
<path fill="none" stroke="black" d="M645,-400.884C645,-392.778 645,-383.982 645,-375.472"/>
<polygon fill="black" stroke="black" points="648.5,-375.299 645,-365.299 641.5,-375.299 648.5,-375.299"/>
</g>
<!-- 24 -->
<g id="node25" class="node"><title>24</title>
<polygon fill="#e5833c" stroke="black" points="976,-365 796,-365 796,-297 976,-297 976,-365"/>
<text text-anchor="middle" x="886" y="-349.8" font-family="Times New Roman,serif" font-size="14.00">worst compactness &lt;= 0.124</text>
<text text-anchor="middle" x="886" y="-334.8" font-family="Times New Roman,serif" font-size="14.00">samples = 130</text>
<text text-anchor="middle" x="886" y="-319.8" font-family="Times New Roman,serif" font-size="14.00">value = [128, 2]</text>
<text text-anchor="middle" x="886" y="-304.8" font-family="Times New Roman,serif" font-size="14.00">class = 악성</text>
</g>
<!-- 14&#45;&gt;24 -->
<g id="edge24" class="edge"><title>14&#45;&gt;24</title>
<path fill="none" stroke="black" d="M723.246,-400.884C747.255,-390.722 773.826,-379.476 798.417,-369.069"/>
<polygon fill="black" stroke="black" points="799.89,-372.246 807.735,-365.125 797.161,-365.799 799.89,-372.246"/>
</g>
<!-- 16 -->
<g id="node17" class="node"><title>16</title>
<polygon fill="#e58139" stroke="black" points="653,-253.5 555,-253.5 555,-200.5 653,-200.5 653,-253.5"/>
<text text-anchor="middle" x="604" y="-238.3" font-family="Times New Roman,serif" font-size="14.00">samples = 15</text>
<text text-anchor="middle" x="604" y="-223.3" font-family="Times New Roman,serif" font-size="14.00">value = [15, 0]</text>
<text text-anchor="middle" x="604" y="-208.3" font-family="Times New Roman,serif" font-size="14.00">class = 악성</text>
</g>
<!-- 15&#45;&gt;16 -->
<g id="edge16" class="edge"><title>15&#45;&gt;16</title>
<path fill="none" stroke="black" d="M631.688,-296.884C627.312,-285.996 622.435,-273.863 618.008,-262.85"/>
<polygon fill="black" stroke="black" points="621.235,-261.493 614.258,-253.52 614.74,-264.104 621.235,-261.493"/>
</g>
<!-- 17 -->
<g id="node18" class="node"><title>17</title>
<polygon fill="#7bbeee" stroke="black" points="820.5,-261 671.5,-261 671.5,-193 820.5,-193 820.5,-261"/>
<text text-anchor="middle" x="746" y="-245.8" font-family="Times New Roman,serif" font-size="14.00">mean texture &lt;= 20.995</text>
<text text-anchor="middle" x="746" y="-230.8" font-family="Times New Roman,serif" font-size="14.00">samples = 24</text>
<text text-anchor="middle" x="746" y="-215.8" font-family="Times New Roman,serif" font-size="14.00">value = [6, 18]</text>
<text text-anchor="middle" x="746" y="-200.8" font-family="Times New Roman,serif" font-size="14.00">class = 양성</text>
</g>
<!-- 15&#45;&gt;17 -->
<g id="edge17" class="edge"><title>15&#45;&gt;17</title>
<path fill="none" stroke="black" d="M677.792,-296.884C686.7,-287.887 696.45,-278.041 705.72,-268.678"/>
<polygon fill="black" stroke="black" points="708.478,-270.868 713.027,-261.299 703.504,-265.943 708.478,-270.868"/>
</g>
<!-- 18 -->
<g id="node19" class="node"><title>18</title>
<polygon fill="#45a3e7" stroke="black" points="727.5,-157 598.5,-157 598.5,-89 727.5,-89 727.5,-157"/>
<text text-anchor="middle" x="663" y="-141.8" font-family="Times New Roman,serif" font-size="14.00">worst area &lt;= 947.6</text>
<text text-anchor="middle" x="663" y="-126.8" font-family="Times New Roman,serif" font-size="14.00">samples = 17</text>
<text text-anchor="middle" x="663" y="-111.8" font-family="Times New Roman,serif" font-size="14.00">value = [1, 16]</text>
<text text-anchor="middle" x="663" y="-96.8" font-family="Times New Roman,serif" font-size="14.00">class = 양성</text>
</g>
<!-- 17&#45;&gt;18 -->
<g id="edge18" class="edge"><title>17&#45;&gt;18</title>
<path fill="none" stroke="black" d="M719.052,-192.884C711.877,-184.065 704.036,-174.43 696.554,-165.235"/>
<polygon fill="black" stroke="black" points="699.123,-162.847 690.097,-157.299 693.693,-167.265 699.123,-162.847"/>
</g>
<!-- 21 -->
<g id="node22" class="node"><title>21</title>
<polygon fill="#efb388" stroke="black" points="888,-157 746,-157 746,-89 888,-89 888,-157"/>
<text text-anchor="middle" x="817" y="-141.8" font-family="Times New Roman,serif" font-size="14.00">mean texture &lt;= 24.47</text>
<text text-anchor="middle" x="817" y="-126.8" font-family="Times New Roman,serif" font-size="14.00">samples = 7</text>
<text text-anchor="middle" x="817" y="-111.8" font-family="Times New Roman,serif" font-size="14.00">value = [5, 2]</text>
<text text-anchor="middle" x="817" y="-96.8" font-family="Times New Roman,serif" font-size="14.00">class = 악성</text>
</g>
<!-- 17&#45;&gt;21 -->
<g id="edge21" class="edge"><title>17&#45;&gt;21</title>
<path fill="none" stroke="black" d="M769.052,-192.884C775.128,-184.154 781.761,-174.625 788.103,-165.514"/>
<polygon fill="black" stroke="black" points="790.981,-167.506 793.821,-157.299 785.235,-163.507 790.981,-167.506"/>
</g>
<!-- 19 -->
<g id="node20" class="node"><title>19</title>
<polygon fill="#399de5" stroke="black" points="624,-53 526,-53 526,-0 624,-0 624,-53"/>
<text text-anchor="middle" x="575" y="-37.8" font-family="Times New Roman,serif" font-size="14.00">samples = 16</text>
<text text-anchor="middle" x="575" y="-22.8" font-family="Times New Roman,serif" font-size="14.00">value = [0, 16]</text>
<text text-anchor="middle" x="575" y="-7.8" font-family="Times New Roman,serif" font-size="14.00">class = 양성</text>
</g>
<!-- 18&#45;&gt;19 -->
<g id="edge19" class="edge"><title>18&#45;&gt;19</title>
<path fill="none" stroke="black" d="M632.222,-88.9485C623.703,-79.8005 614.455,-69.8697 605.928,-60.7126"/>
<polygon fill="black" stroke="black" points="608.343,-58.1698 598.966,-53.2367 603.22,-62.9402 608.343,-58.1698"/>
</g>
<!-- 20 -->
<g id="node21" class="node"><title>20</title>
<polygon fill="#e58139" stroke="black" points="733.5,-53 642.5,-53 642.5,-0 733.5,-0 733.5,-53"/>
<text text-anchor="middle" x="688" y="-37.8" font-family="Times New Roman,serif" font-size="14.00">samples = 1</text>
<text text-anchor="middle" x="688" y="-22.8" font-family="Times New Roman,serif" font-size="14.00">value = [1, 0]</text>
<text text-anchor="middle" x="688" y="-7.8" font-family="Times New Roman,serif" font-size="14.00">class = 악성</text>
</g>
<!-- 18&#45;&gt;20 -->
<g id="edge20" class="edge"><title>18&#45;&gt;20</title>
<path fill="none" stroke="black" d="M671.744,-88.9485C673.97,-80.5323 676.372,-71.4536 678.628,-62.9243"/>
<polygon fill="black" stroke="black" points="682.017,-63.7993 681.191,-53.2367 675.25,-62.009 682.017,-63.7993"/>
</g>
<!-- 22 -->
<g id="node23" class="node"><title>22</title>
<polygon fill="#e58139" stroke="black" points="842.5,-53 751.5,-53 751.5,-0 842.5,-0 842.5,-53"/>
<text text-anchor="middle" x="797" y="-37.8" font-family="Times New Roman,serif" font-size="14.00">samples = 5</text>
<text text-anchor="middle" x="797" y="-22.8" font-family="Times New Roman,serif" font-size="14.00">value = [5, 0]</text>
<text text-anchor="middle" x="797" y="-7.8" font-family="Times New Roman,serif" font-size="14.00">class = 악성</text>
</g>
<!-- 21&#45;&gt;22 -->
<g id="edge22" class="edge"><title>21&#45;&gt;22</title>
<path fill="none" stroke="black" d="M810.005,-88.9485C808.243,-80.6238 806.344,-71.6509 804.556,-63.2027"/>
<polygon fill="black" stroke="black" points="807.942,-62.2953 802.447,-53.2367 801.093,-63.7447 807.942,-62.2953"/>
</g>
<!-- 23 -->
<g id="node24" class="node"><title>23</title>
<polygon fill="#399de5" stroke="black" points="951.5,-53 860.5,-53 860.5,-0 951.5,-0 951.5,-53"/>
<text text-anchor="middle" x="906" y="-37.8" font-family="Times New Roman,serif" font-size="14.00">samples = 2</text>
<text text-anchor="middle" x="906" y="-22.8" font-family="Times New Roman,serif" font-size="14.00">value = [0, 2]</text>
<text text-anchor="middle" x="906" y="-7.8" font-family="Times New Roman,serif" font-size="14.00">class = 양성</text>
</g>
<!-- 21&#45;&gt;23 -->
<g id="edge23" class="edge"><title>21&#45;&gt;23</title>
<path fill="none" stroke="black" d="M848.128,-88.9485C856.743,-79.8005 866.096,-69.8697 874.72,-60.7126"/>
<polygon fill="black" stroke="black" points="877.453,-62.9161 881.761,-53.2367 872.357,-58.1168 877.453,-62.9161"/>
</g>
<!-- 25 -->
<g id="node26" class="node"><title>25</title>
<polygon fill="#399de5" stroke="black" points="931.5,-253.5 840.5,-253.5 840.5,-200.5 931.5,-200.5 931.5,-253.5"/>
<text text-anchor="middle" x="886" y="-238.3" font-family="Times New Roman,serif" font-size="14.00">samples = 1</text>
<text text-anchor="middle" x="886" y="-223.3" font-family="Times New Roman,serif" font-size="14.00">value = [0, 1]</text>
<text text-anchor="middle" x="886" y="-208.3" font-family="Times New Roman,serif" font-size="14.00">class = 양성</text>
</g>
<!-- 24&#45;&gt;25 -->
<g id="edge25" class="edge"><title>24&#45;&gt;25</title>
<path fill="none" stroke="black" d="M886,-296.884C886,-286.326 886,-274.597 886,-263.854"/>
<polygon fill="black" stroke="black" points="889.5,-263.52 886,-253.52 882.5,-263.52 889.5,-263.52"/>
</g>
<!-- 26 -->
<g id="node27" class="node"><title>26</title>
<polygon fill="#e5823b" stroke="black" points="1079.5,-261 950.5,-261 950.5,-193 1079.5,-193 1079.5,-261"/>
<text text-anchor="middle" x="1015" y="-245.8" font-family="Times New Roman,serif" font-size="14.00">radius error &lt;= 0.24</text>
<text text-anchor="middle" x="1015" y="-230.8" font-family="Times New Roman,serif" font-size="14.00">samples = 129</text>
<text text-anchor="middle" x="1015" y="-215.8" font-family="Times New Roman,serif" font-size="14.00">value = [128, 1]</text>
<text text-anchor="middle" x="1015" y="-200.8" font-family="Times New Roman,serif" font-size="14.00">class = 악성</text>
</g>
<!-- 24&#45;&gt;26 -->
<g id="edge26" class="edge"><title>24&#45;&gt;26</title>
<path fill="none" stroke="black" d="M927.883,-296.884C939.711,-287.531 952.701,-277.259 964.958,-267.568"/>
<polygon fill="black" stroke="black" points="967.213,-270.247 972.886,-261.299 962.871,-264.756 967.213,-270.247"/>
</g>
<!-- 27 -->
<g id="node28" class="node"><title>27</title>
<polygon fill="#f2c09c" stroke="black" points="1105,-157 925,-157 925,-89 1105,-89 1105,-157"/>
<text text-anchor="middle" x="1015" y="-141.8" font-family="Times New Roman,serif" font-size="14.00">worst compactness &lt;= 0.176</text>
<text text-anchor="middle" x="1015" y="-126.8" font-family="Times New Roman,serif" font-size="14.00">samples = 3</text>
<text text-anchor="middle" x="1015" y="-111.8" font-family="Times New Roman,serif" font-size="14.00">value = [2, 1]</text>
<text text-anchor="middle" x="1015" y="-96.8" font-family="Times New Roman,serif" font-size="14.00">class = 악성</text>
</g>
<!-- 26&#45;&gt;27 -->
<g id="edge27" class="edge"><title>26&#45;&gt;27</title>
<path fill="none" stroke="black" d="M1015,-192.884C1015,-184.778 1015,-175.982 1015,-167.472"/>
<polygon fill="black" stroke="black" points="1018.5,-167.299 1015,-157.299 1011.5,-167.299 1018.5,-167.299"/>
</g>
<!-- 30 -->
<g id="node31" class="node"><title>30</title>
<polygon fill="#e58139" stroke="black" points="1227,-149.5 1123,-149.5 1123,-96.5 1227,-96.5 1227,-149.5"/>
<text text-anchor="middle" x="1175" y="-134.3" font-family="Times New Roman,serif" font-size="14.00">samples = 126</text>
<text text-anchor="middle" x="1175" y="-119.3" font-family="Times New Roman,serif" font-size="14.00">value = [126, 0]</text>
<text text-anchor="middle" x="1175" y="-104.3" font-family="Times New Roman,serif" font-size="14.00">class = 악성</text>
</g>
<!-- 26&#45;&gt;30 -->
<g id="edge30" class="edge"><title>26&#45;&gt;30</title>
<path fill="none" stroke="black" d="M1066.95,-192.884C1086.1,-180.676 1107.7,-166.903 1126.53,-154.899"/>
<polygon fill="black" stroke="black" points="1128.42,-157.847 1134.97,-149.52 1124.65,-151.944 1128.42,-157.847"/>
</g>
<!-- 28 -->
<g id="node29" class="node"><title>28</title>
<polygon fill="#399de5" stroke="black" points="1060.5,-53 969.5,-53 969.5,-0 1060.5,-0 1060.5,-53"/>
<text text-anchor="middle" x="1015" y="-37.8" font-family="Times New Roman,serif" font-size="14.00">samples = 1</text>
<text text-anchor="middle" x="1015" y="-22.8" font-family="Times New Roman,serif" font-size="14.00">value = [0, 1]</text>
<text text-anchor="middle" x="1015" y="-7.8" font-family="Times New Roman,serif" font-size="14.00">class = 양성</text>
</g>
<!-- 27&#45;&gt;28 -->
<g id="edge28" class="edge"><title>27&#45;&gt;28</title>
<path fill="none" stroke="black" d="M1015,-88.9485C1015,-80.7153 1015,-71.848 1015,-63.4814"/>
<polygon fill="black" stroke="black" points="1018.5,-63.2367 1015,-53.2367 1011.5,-63.2367 1018.5,-63.2367"/>
</g>
<!-- 29 -->
<g id="node30" class="node"><title>29</title>
<polygon fill="#e58139" stroke="black" points="1169.5,-53 1078.5,-53 1078.5,-0 1169.5,-0 1169.5,-53"/>
<text text-anchor="middle" x="1124" y="-37.8" font-family="Times New Roman,serif" font-size="14.00">samples = 2</text>
<text text-anchor="middle" x="1124" y="-22.8" font-family="Times New Roman,serif" font-size="14.00">value = [2, 0]</text>
<text text-anchor="middle" x="1124" y="-7.8" font-family="Times New Roman,serif" font-size="14.00">class = 악성</text>
</g>
<!-- 27&#45;&gt;29 -->
<g id="edge29" class="edge"><title>27&#45;&gt;29</title>
<path fill="none" stroke="black" d="M1053.12,-88.9485C1063.99,-79.526 1075.82,-69.2731 1086.64,-59.8906"/>
<polygon fill="black" stroke="black" points="1089.05,-62.4319 1094.31,-53.2367 1084.47,-57.1428 1089.05,-62.4319"/>
</g>
</g>
</svg>
