<?xml version="1.0" encoding="UTF-8" standalone="no"?>
<!DOCTYPE svg PUBLIC "-//W3C//DTD SVG 1.1//EN"
 "http://www.w3.org/Graphics/SVG/1.1/DTD/svg11.dtd">
<!-- Generated by graphviz version 2.38.0 (20140413.2041)
 -->
<!-- Title: Tree Pages: 1 -->
<svg width="1407pt" height="477pt"
 viewBox="0.00 0.00 1407.00 477.00" xmlns="http://www.w3.org/2000/svg" xmlns:xlink="http://www.w3.org/1999/xlink">
<g id="graph0" class="graph" transform="scale(1 1) rotate(0) translate(4 473)">
<title>Tree</title>
<polygon fill="white" stroke="none" points="-4,4 -4,-473 1403,-473 1403,4 -4,4"/>
<!-- 0 -->
<g id="node1" class="node"><title>0</title>
<polygon fill="#f0b58a" stroke="black" points="923,-469 746,-469 746,-401 923,-401 923,-469"/>
<text text-anchor="middle" x="834.5" y="-453.8" font-family="Times New Roman,serif" font-size="14.00">매출_금액2 &lt;= 621255520.0</text>
<text text-anchor="middle" x="834.5" y="-438.8" font-family="Times New Roman,serif" font-size="14.00">samples = 879</text>
<text text-anchor="middle" x="834.5" y="-423.8" font-family="Times New Roman,serif" font-size="14.00">value = [623, 256]</text>
<text text-anchor="middle" x="834.5" y="-408.8" font-family="Times New Roman,serif" font-size="14.00">class = 악성</text>
</g>
<!-- 1 -->
<g id="node2" class="node"><title>1</title>
<polygon fill="#f8dfcc" stroke="black" points="767.5,-365 603.5,-365 603.5,-297 767.5,-297 767.5,-365"/>
<text text-anchor="middle" x="685.5" y="-349.8" font-family="Times New Roman,serif" font-size="14.00">설립_일자 &lt;= 19970829.0</text>
<text text-anchor="middle" x="685.5" y="-334.8" font-family="Times New Roman,serif" font-size="14.00">samples = 354</text>
<text text-anchor="middle" x="685.5" y="-319.8" font-family="Times New Roman,serif" font-size="14.00">value = [203, 151]</text>
<text text-anchor="middle" x="685.5" y="-304.8" font-family="Times New Roman,serif" font-size="14.00">class = 악성</text>
</g>
<!-- 0&#45;&gt;1 -->
<g id="edge1" class="edge"><title>0&#45;&gt;1</title>
<path fill="none" stroke="black" d="M786.124,-400.884C772.13,-391.304 756.729,-380.761 742.273,-370.864"/>
<polygon fill="black" stroke="black" points="744.117,-367.885 733.888,-365.125 740.163,-373.662 744.117,-367.885"/>
<text text-anchor="middle" x="738.489" y="-385.998" font-family="Times New Roman,serif" font-size="14.00">True</text>
</g>
<!-- 16 -->
<g id="node17" class="node"><title>16</title>
<polygon fill="#eca06a" stroke="black" points="1108,-365 911,-365 911,-297 1108,-297 1108,-365"/>
<text text-anchor="middle" x="1009.5" y="-349.8" font-family="Times New Roman,serif" font-size="14.00">순이익_금액 &lt;= 10166974208.0</text>
<text text-anchor="middle" x="1009.5" y="-334.8" font-family="Times New Roman,serif" font-size="14.00">samples = 525</text>
<text text-anchor="middle" x="1009.5" y="-319.8" font-family="Times New Roman,serif" font-size="14.00">value = [420, 105]</text>
<text text-anchor="middle" x="1009.5" y="-304.8" font-family="Times New Roman,serif" font-size="14.00">class = 악성</text>
</g>
<!-- 0&#45;&gt;16 -->
<g id="edge16" class="edge"><title>0&#45;&gt;16</title>
<path fill="none" stroke="black" d="M891.317,-400.884C908.06,-391.125 926.519,-380.366 943.772,-370.31"/>
<polygon fill="black" stroke="black" points="945.791,-373.184 952.668,-365.125 942.266,-367.137 945.791,-373.184"/>
<text text-anchor="middle" x="946.297" y="-385.599" font-family="Times New Roman,serif" font-size="14.00">False</text>
</g>
<!-- 2 -->
<g id="node3" class="node"><title>2</title>
<polygon fill="#eca16b" stroke="black" points="442.5,-261 262.5,-261 262.5,-193 442.5,-193 442.5,-261"/>
<text text-anchor="middle" x="352.5" y="-245.8" font-family="Times New Roman,serif" font-size="14.00">이익보상배수코드 &lt;= 1122.5</text>
<text text-anchor="middle" x="352.5" y="-230.8" font-family="Times New Roman,serif" font-size="14.00">samples = 94</text>
<text text-anchor="middle" x="352.5" y="-215.8" font-family="Times New Roman,serif" font-size="14.00">value = [75, 19]</text>
<text text-anchor="middle" x="352.5" y="-200.8" font-family="Times New Roman,serif" font-size="14.00">class = 악성</text>
</g>
<!-- 1&#45;&gt;2 -->
<g id="edge2" class="edge"><title>1&#45;&gt;2</title>
<path fill="none" stroke="black" d="M603.185,-304.787C557.598,-290.823 500.586,-273.36 452.453,-258.616"/>
<polygon fill="black" stroke="black" points="453.225,-255.192 442.639,-255.61 451.175,-261.885 453.225,-255.192"/>
</g>
<!-- 9 -->
<g id="node10" class="node"><title>9</title>
<polygon fill="#f9fcfe" stroke="black" points="754,-261 617,-261 617,-193 754,-193 754,-261"/>
<text text-anchor="middle" x="685.5" y="-245.8" font-family="Times New Roman,serif" font-size="14.00">종업원_수 &lt;= 2946.5</text>
<text text-anchor="middle" x="685.5" y="-230.8" font-family="Times New Roman,serif" font-size="14.00">samples = 260</text>
<text text-anchor="middle" x="685.5" y="-215.8" font-family="Times New Roman,serif" font-size="14.00">value = [128, 132]</text>
<text text-anchor="middle" x="685.5" y="-200.8" font-family="Times New Roman,serif" font-size="14.00">class = 양성</text>
</g>
<!-- 1&#45;&gt;9 -->
<g id="edge9" class="edge"><title>1&#45;&gt;9</title>
<path fill="none" stroke="black" d="M685.5,-296.884C685.5,-288.778 685.5,-279.982 685.5,-271.472"/>
<polygon fill="black" stroke="black" points="689,-271.299 685.5,-261.299 682,-271.299 689,-271.299"/>
</g>
<!-- 3 -->
<g id="node4" class="node"><title>3</title>
<polygon fill="#e99558" stroke="black" points="237,-157 80,-157 80,-89 237,-89 237,-157"/>
<text text-anchor="middle" x="158.5" y="-141.8" font-family="Times New Roman,serif" font-size="14.00">자본_금액 &lt;= 2500000.0</text>
<text text-anchor="middle" x="158.5" y="-126.8" font-family="Times New Roman,serif" font-size="14.00">samples = 67</text>
<text text-anchor="middle" x="158.5" y="-111.8" font-family="Times New Roman,serif" font-size="14.00">value = [58, 9]</text>
<text text-anchor="middle" x="158.5" y="-96.8" font-family="Times New Roman,serif" font-size="14.00">class = 악성</text>
</g>
<!-- 2&#45;&gt;3 -->
<g id="edge3" class="edge"><title>2&#45;&gt;3</title>
<path fill="none" stroke="black" d="M289.514,-192.884C270.698,-182.991 249.927,-172.07 230.576,-161.895"/>
<polygon fill="black" stroke="black" points="231.982,-158.681 221.502,-157.125 228.724,-164.876 231.982,-158.681"/>
</g>
<!-- 6 -->
<g id="node7" class="node"><title>6</title>
<polygon fill="#f4cbad" stroke="black" points="414,-157 291,-157 291,-89 414,-89 414,-157"/>
<text text-anchor="middle" x="352.5" y="-141.8" font-family="Times New Roman,serif" font-size="14.00">산재_비율 &lt;= 10.5</text>
<text text-anchor="middle" x="352.5" y="-126.8" font-family="Times New Roman,serif" font-size="14.00">samples = 27</text>
<text text-anchor="middle" x="352.5" y="-111.8" font-family="Times New Roman,serif" font-size="14.00">value = [17, 10]</text>
<text text-anchor="middle" x="352.5" y="-96.8" font-family="Times New Roman,serif" font-size="14.00">class = 악성</text>
</g>
<!-- 2&#45;&gt;6 -->
<g id="edge6" class="edge"><title>2&#45;&gt;6</title>
<path fill="none" stroke="black" d="M352.5,-192.884C352.5,-184.778 352.5,-175.982 352.5,-167.472"/>
<polygon fill="black" stroke="black" points="356,-167.299 352.5,-157.299 349,-167.299 356,-167.299"/>
</g>
<!-- 4 -->
<g id="node5" class="node"><title>4</title>
<polygon fill="#bddef6" stroke="black" points="91,-53 0,-53 0,-0 91,-0 91,-53"/>
<text text-anchor="middle" x="45.5" y="-37.8" font-family="Times New Roman,serif" font-size="14.00">samples = 5</text>
<text text-anchor="middle" x="45.5" y="-22.8" font-family="Times New Roman,serif" font-size="14.00">value = [2, 3]</text>
<text text-anchor="middle" x="45.5" y="-7.8" font-family="Times New Roman,serif" font-size="14.00">class = 양성</text>
</g>
<!-- 3&#45;&gt;4 -->
<g id="edge4" class="edge"><title>3&#45;&gt;4</title>
<path fill="none" stroke="black" d="M118.978,-88.9485C107.711,-79.526 95.451,-69.2731 84.2316,-59.8906"/>
<polygon fill="black" stroke="black" points="86.1915,-56.967 76.2751,-53.2367 81.7009,-62.3368 86.1915,-56.967"/>
</g>
<!-- 5 -->
<g id="node6" class="node"><title>5</title>
<polygon fill="#e88e4e" stroke="black" points="207.5,-53 109.5,-53 109.5,-0 207.5,-0 207.5,-53"/>
<text text-anchor="middle" x="158.5" y="-37.8" font-family="Times New Roman,serif" font-size="14.00">samples = 62</text>
<text text-anchor="middle" x="158.5" y="-22.8" font-family="Times New Roman,serif" font-size="14.00">value = [56, 6]</text>
<text text-anchor="middle" x="158.5" y="-7.8" font-family="Times New Roman,serif" font-size="14.00">class = 악성</text>
</g>
<!-- 3&#45;&gt;5 -->
<g id="edge5" class="edge"><title>3&#45;&gt;5</title>
<path fill="none" stroke="black" d="M158.5,-88.9485C158.5,-80.7153 158.5,-71.848 158.5,-63.4814"/>
<polygon fill="black" stroke="black" points="162,-63.2367 158.5,-53.2367 155,-63.2367 162,-63.2367"/>
</g>
<!-- 7 -->
<g id="node8" class="node"><title>7</title>
<polygon fill="#eda877" stroke="black" points="323.5,-53 225.5,-53 225.5,-0 323.5,-0 323.5,-53"/>
<text text-anchor="middle" x="274.5" y="-37.8" font-family="Times New Roman,serif" font-size="14.00">samples = 21</text>
<text text-anchor="middle" x="274.5" y="-22.8" font-family="Times New Roman,serif" font-size="14.00">value = [16, 5]</text>
<text text-anchor="middle" x="274.5" y="-7.8" font-family="Times New Roman,serif" font-size="14.00">class = 악성</text>
</g>
<!-- 6&#45;&gt;7 -->
<g id="edge7" class="edge"><title>6&#45;&gt;7</title>
<path fill="none" stroke="black" d="M325.219,-88.9485C317.744,-79.892 309.636,-70.0682 302.14,-60.9875"/>
<polygon fill="black" stroke="black" points="304.808,-58.721 295.743,-53.2367 299.409,-63.1769 304.808,-58.721"/>
</g>
<!-- 8 -->
<g id="node9" class="node"><title>8</title>
<polygon fill="#61b1ea" stroke="black" points="433,-53 342,-53 342,-0 433,-0 433,-53"/>
<text text-anchor="middle" x="387.5" y="-37.8" font-family="Times New Roman,serif" font-size="14.00">samples = 6</text>
<text text-anchor="middle" x="387.5" y="-22.8" font-family="Times New Roman,serif" font-size="14.00">value = [1, 5]</text>
<text text-anchor="middle" x="387.5" y="-7.8" font-family="Times New Roman,serif" font-size="14.00">class = 양성</text>
</g>
<!-- 6&#45;&gt;8 -->
<g id="edge8" class="edge"><title>6&#45;&gt;8</title>
<path fill="none" stroke="black" d="M364.741,-88.9485C367.892,-80.4408 371.294,-71.2562 374.483,-62.6464"/>
<polygon fill="black" stroke="black" points="377.777,-63.8298 377.968,-53.2367 371.213,-61.3986 377.777,-63.8298"/>
</g>
<!-- 10 -->
<g id="node11" class="node"><title>10</title>
<polygon fill="#fdf7f2" stroke="black" points="676.5,-157 558.5,-157 558.5,-89 676.5,-89 676.5,-157"/>
<text text-anchor="middle" x="617.5" y="-141.8" font-family="Times New Roman,serif" font-size="14.00">industry &lt;= 74.5</text>
<text text-anchor="middle" x="617.5" y="-126.8" font-family="Times New Roman,serif" font-size="14.00">samples = 238</text>
<text text-anchor="middle" x="617.5" y="-111.8" font-family="Times New Roman,serif" font-size="14.00">value = [123, 115]</text>
<text text-anchor="middle" x="617.5" y="-96.8" font-family="Times New Roman,serif" font-size="14.00">class = 악성</text>
</g>
<!-- 9&#45;&gt;10 -->
<g id="edge10" class="edge"><title>9&#45;&gt;10</title>
<path fill="none" stroke="black" d="M663.422,-192.884C657.662,-184.243 651.379,-174.819 645.362,-165.793"/>
<polygon fill="black" stroke="black" points="648.159,-163.678 639.7,-157.299 642.334,-167.561 648.159,-163.678"/>
</g>
<!-- 13 -->
<g id="node14" class="node"><title>13</title>
<polygon fill="#73baed" stroke="black" points="810.5,-157 694.5,-157 694.5,-89 810.5,-89 810.5,-157"/>
<text text-anchor="middle" x="752.5" y="-141.8" font-family="Times New Roman,serif" font-size="14.00">industry &lt;= 147.5</text>
<text text-anchor="middle" x="752.5" y="-126.8" font-family="Times New Roman,serif" font-size="14.00">samples = 22</text>
<text text-anchor="middle" x="752.5" y="-111.8" font-family="Times New Roman,serif" font-size="14.00">value = [5, 17]</text>
<text text-anchor="middle" x="752.5" y="-96.8" font-family="Times New Roman,serif" font-size="14.00">class = 양성</text>
</g>
<!-- 9&#45;&gt;13 -->
<g id="edge13" class="edge"><title>9&#45;&gt;13</title>
<path fill="none" stroke="black" d="M707.253,-192.884C712.928,-184.243 719.119,-174.819 725.048,-165.793"/>
<polygon fill="black" stroke="black" points="728.062,-167.579 730.627,-157.299 722.211,-163.736 728.062,-167.579"/>
</g>
<!-- 11 -->
<g id="node12" class="node"><title>11</title>
<polygon fill="#f2c2a0" stroke="black" points="555.5,-53 451.5,-53 451.5,-0 555.5,-0 555.5,-53"/>
<text text-anchor="middle" x="503.5" y="-37.8" font-family="Times New Roman,serif" font-size="14.00">samples = 79</text>
<text text-anchor="middle" x="503.5" y="-22.8" font-family="Times New Roman,serif" font-size="14.00">value = [52, 27]</text>
<text text-anchor="middle" x="503.5" y="-7.8" font-family="Times New Roman,serif" font-size="14.00">class = 악성</text>
</g>
<!-- 10&#45;&gt;11 -->
<g id="edge11" class="edge"><title>10&#45;&gt;11</title>
<path fill="none" stroke="black" d="M577.628,-88.9485C566.262,-79.526 553.893,-69.2731 542.574,-59.8906"/>
<polygon fill="black" stroke="black" points="544.48,-56.924 534.547,-53.2367 540.013,-62.3132 544.48,-56.924"/>
</g>
<!-- 12 -->
<g id="node13" class="node"><title>12</title>
<polygon fill="#d9ecfa" stroke="black" points="677.5,-53 573.5,-53 573.5,-0 677.5,-0 677.5,-53"/>
<text text-anchor="middle" x="625.5" y="-37.8" font-family="Times New Roman,serif" font-size="14.00">samples = 159</text>
<text text-anchor="middle" x="625.5" y="-22.8" font-family="Times New Roman,serif" font-size="14.00">value = [71, 88]</text>
<text text-anchor="middle" x="625.5" y="-7.8" font-family="Times New Roman,serif" font-size="14.00">class = 양성</text>
</g>
<!-- 10&#45;&gt;12 -->
<g id="edge12" class="edge"><title>10&#45;&gt;12</title>
<path fill="none" stroke="black" d="M620.298,-88.9485C621.003,-80.6238 621.762,-71.6509 622.478,-63.2027"/>
<polygon fill="black" stroke="black" points="625.965,-63.4963 623.321,-53.2367 618.99,-62.9058 625.965,-63.4963"/>
</g>
<!-- 14 -->
<g id="node15" class="node"><title>14</title>
<polygon fill="#5eafea" stroke="black" points="793.5,-53 695.5,-53 695.5,-0 793.5,-0 793.5,-53"/>
<text text-anchor="middle" x="744.5" y="-37.8" font-family="Times New Roman,serif" font-size="14.00">samples = 19</text>
<text text-anchor="middle" x="744.5" y="-22.8" font-family="Times New Roman,serif" font-size="14.00">value = [3, 16]</text>
<text text-anchor="middle" x="744.5" y="-7.8" font-family="Times New Roman,serif" font-size="14.00">class = 양성</text>
</g>
<!-- 13&#45;&gt;14 -->
<g id="edge14" class="edge"><title>13&#45;&gt;14</title>
<path fill="none" stroke="black" d="M749.702,-88.9485C748.997,-80.6238 748.238,-71.6509 747.522,-63.2027"/>
<polygon fill="black" stroke="black" points="751.01,-62.9058 746.679,-53.2367 744.035,-63.4963 751.01,-62.9058"/>
</g>
<!-- 15 -->
<g id="node16" class="node"><title>15</title>
<polygon fill="#f2c09c" stroke="black" points="903,-53 812,-53 812,-0 903,-0 903,-53"/>
<text text-anchor="middle" x="857.5" y="-37.8" font-family="Times New Roman,serif" font-size="14.00">samples = 3</text>
<text text-anchor="middle" x="857.5" y="-22.8" font-family="Times New Roman,serif" font-size="14.00">value = [2, 1]</text>
<text text-anchor="middle" x="857.5" y="-7.8" font-family="Times New Roman,serif" font-size="14.00">class = 악성</text>
</g>
<!-- 13&#45;&gt;15 -->
<g id="edge15" class="edge"><title>13&#45;&gt;15</title>
<path fill="none" stroke="black" d="M789.224,-88.9485C799.592,-79.6175 810.864,-69.4722 821.207,-60.1641"/>
<polygon fill="black" stroke="black" points="823.812,-62.5279 828.904,-53.2367 819.129,-57.3248 823.812,-62.5279"/>
</g>
<!-- 17 -->
<g id="node18" class="node"><title>17</title>
<polygon fill="#eb9f69" stroke="black" points="1071,-261 948,-261 948,-193 1071,-193 1071,-261"/>
<text text-anchor="middle" x="1009.5" y="-245.8" font-family="Times New Roman,serif" font-size="14.00">종업원_수 &lt;= 43.5</text>
<text text-anchor="middle" x="1009.5" y="-230.8" font-family="Times New Roman,serif" font-size="14.00">samples = 521</text>
<text text-anchor="middle" x="1009.5" y="-215.8" font-family="Times New Roman,serif" font-size="14.00">value = [420, 101]</text>
<text text-anchor="middle" x="1009.5" y="-200.8" font-family="Times New Roman,serif" font-size="14.00">class = 악성</text>
</g>
<!-- 16&#45;&gt;17 -->
<g id="edge17" class="edge"><title>16&#45;&gt;17</title>
<path fill="none" stroke="black" d="M1009.5,-296.884C1009.5,-288.778 1009.5,-279.982 1009.5,-271.472"/>
<polygon fill="black" stroke="black" points="1013,-271.299 1009.5,-261.299 1006,-271.299 1013,-271.299"/>
</g>
<!-- 24 -->
<g id="node25" class="node"><title>24</title>
<polygon fill="#399de5" stroke="black" points="1180,-253.5 1089,-253.5 1089,-200.5 1180,-200.5 1180,-253.5"/>
<text text-anchor="middle" x="1134.5" y="-238.3" font-family="Times New Roman,serif" font-size="14.00">samples = 4</text>
<text text-anchor="middle" x="1134.5" y="-223.3" font-family="Times New Roman,serif" font-size="14.00">value = [0, 4]</text>
<text text-anchor="middle" x="1134.5" y="-208.3" font-family="Times New Roman,serif" font-size="14.00">class = 양성</text>
</g>
<!-- 16&#45;&gt;24 -->
<g id="edge24" class="edge"><title>16&#45;&gt;24</title>
<path fill="none" stroke="black" d="M1050.08,-296.884C1064.64,-285.006 1081.01,-271.646 1095.44,-259.876"/>
<polygon fill="black" stroke="black" points="1097.69,-262.554 1103.23,-253.52 1093.26,-257.13 1097.69,-262.554"/>
</g>
<!-- 18 -->
<g id="node19" class="node"><title>18</title>
<polygon fill="#f0b48a" stroke="black" points="1071,-157 948,-157 948,-89 1071,-89 1071,-157"/>
<text text-anchor="middle" x="1009.5" y="-141.8" font-family="Times New Roman,serif" font-size="14.00">산재_비율 &lt;= 19.0</text>
<text text-anchor="middle" x="1009.5" y="-126.8" font-family="Times New Roman,serif" font-size="14.00">samples = 145</text>
<text text-anchor="middle" x="1009.5" y="-111.8" font-family="Times New Roman,serif" font-size="14.00">value = [103, 42]</text>
<text text-anchor="middle" x="1009.5" y="-96.8" font-family="Times New Roman,serif" font-size="14.00">class = 악성</text>
</g>
<!-- 17&#45;&gt;18 -->
<g id="edge18" class="edge"><title>17&#45;&gt;18</title>
<path fill="none" stroke="black" d="M1009.5,-192.884C1009.5,-184.778 1009.5,-175.982 1009.5,-167.472"/>
<polygon fill="black" stroke="black" points="1013,-167.299 1009.5,-157.299 1006,-167.299 1013,-167.299"/>
</g>
<!-- 21 -->
<g id="node22" class="node"><title>21</title>
<polygon fill="#ea985e" stroke="black" points="1306.5,-157 1122.5,-157 1122.5,-89 1306.5,-89 1306.5,-157"/>
<text text-anchor="middle" x="1214.5" y="-141.8" font-family="Times New Roman,serif" font-size="14.00">매출_금액 &lt;= 10658463744.0</text>
<text text-anchor="middle" x="1214.5" y="-126.8" font-family="Times New Roman,serif" font-size="14.00">samples = 376</text>
<text text-anchor="middle" x="1214.5" y="-111.8" font-family="Times New Roman,serif" font-size="14.00">value = [317, 59]</text>
<text text-anchor="middle" x="1214.5" y="-96.8" font-family="Times New Roman,serif" font-size="14.00">class = 악성</text>
</g>
<!-- 17&#45;&gt;21 -->
<g id="edge21" class="edge"><title>17&#45;&gt;21</title>
<path fill="none" stroke="black" d="M1071.01,-195.397C1092.36,-184.772 1116.55,-172.734 1138.91,-161.61"/>
<polygon fill="black" stroke="black" points="1140.64,-164.659 1148.04,-157.07 1137.52,-158.391 1140.64,-164.659"/>
</g>
<!-- 19 -->
<g id="node20" class="node"><title>19</title>
<polygon fill="#efaf82" stroke="black" points="1032,-53 921,-53 921,-0 1032,-0 1032,-53"/>
<text text-anchor="middle" x="976.5" y="-37.8" font-family="Times New Roman,serif" font-size="14.00">samples = 141</text>
<text text-anchor="middle" x="976.5" y="-22.8" font-family="Times New Roman,serif" font-size="14.00">value = [103, 38]</text>
<text text-anchor="middle" x="976.5" y="-7.8" font-family="Times New Roman,serif" font-size="14.00">class = 악성</text>
</g>
<!-- 18&#45;&gt;19 -->
<g id="edge19" class="edge"><title>18&#45;&gt;19</title>
<path fill="none" stroke="black" d="M997.958,-88.9485C995.019,-80.5323 991.849,-71.4536 988.87,-62.9243"/>
<polygon fill="black" stroke="black" points="992.089,-61.5237 985.487,-53.2367 985.48,-63.8315 992.089,-61.5237"/>
</g>
<!-- 20 -->
<g id="node21" class="node"><title>20</title>
<polygon fill="#399de5" stroke="black" points="1141,-53 1050,-53 1050,-0 1141,-0 1141,-53"/>
<text text-anchor="middle" x="1095.5" y="-37.8" font-family="Times New Roman,serif" font-size="14.00">samples = 4</text>
<text text-anchor="middle" x="1095.5" y="-22.8" font-family="Times New Roman,serif" font-size="14.00">value = [0, 4]</text>
<text text-anchor="middle" x="1095.5" y="-7.8" font-family="Times New Roman,serif" font-size="14.00">class = 양성</text>
</g>
<!-- 18&#45;&gt;20 -->
<g id="edge20" class="edge"><title>18&#45;&gt;20</title>
<path fill="none" stroke="black" d="M1039.58,-88.9485C1047.9,-79.8005 1056.94,-69.8697 1065.27,-60.7126"/>
<polygon fill="black" stroke="black" points="1067.94,-62.9883 1072.08,-53.2367 1062.76,-58.2769 1067.94,-62.9883"/>
</g>
<!-- 22 -->
<g id="node23" class="node"><title>22</title>
<polygon fill="#e88e4e" stroke="black" points="1270,-53 1159,-53 1159,-0 1270,-0 1270,-53"/>
<text text-anchor="middle" x="1214.5" y="-37.8" font-family="Times New Roman,serif" font-size="14.00">samples = 223</text>
<text text-anchor="middle" x="1214.5" y="-22.8" font-family="Times New Roman,serif" font-size="14.00">value = [202, 21]</text>
<text text-anchor="middle" x="1214.5" y="-7.8" font-family="Times New Roman,serif" font-size="14.00">class = 악성</text>
</g>
<!-- 21&#45;&gt;22 -->
<g id="edge22" class="edge"><title>21&#45;&gt;22</title>
<path fill="none" stroke="black" d="M1214.5,-88.9485C1214.5,-80.7153 1214.5,-71.848 1214.5,-63.4814"/>
<polygon fill="black" stroke="black" points="1218,-63.2367 1214.5,-53.2367 1211,-63.2367 1218,-63.2367"/>
</g>
<!-- 23 -->
<g id="node24" class="node"><title>23</title>
<polygon fill="#eeab7a" stroke="black" points="1399,-53 1288,-53 1288,-0 1399,-0 1399,-53"/>
<text text-anchor="middle" x="1343.5" y="-37.8" font-family="Times New Roman,serif" font-size="14.00">samples = 153</text>
<text text-anchor="middle" x="1343.5" y="-22.8" font-family="Times New Roman,serif" font-size="14.00">value = [115, 38]</text>
<text text-anchor="middle" x="1343.5" y="-7.8" font-family="Times New Roman,serif" font-size="14.00">class = 악성</text>
</g>
<!-- 21&#45;&gt;23 -->
<g id="edge23" class="edge"><title>21&#45;&gt;23</title>
<path fill="none" stroke="black" d="M1259.62,-88.9485C1272.73,-79.3431 1287.02,-68.8747 1300.03,-59.345"/>
<polygon fill="black" stroke="black" points="1302.37,-61.9698 1308.37,-53.2367 1298.23,-56.3228 1302.37,-61.9698"/>
</g>
</g>
</svg>
