<?xml version="1.0" encoding="UTF-8" standalone="no"?>
<!DOCTYPE svg PUBLIC "-//W3C//DTD SVG 1.1//EN"
 "http://www.w3.org/Graphics/SVG/1.1/DTD/svg11.dtd">
<!-- Generated by graphviz version 2.38.0 (20140413.2041)
 -->
<!-- Title: Tree Pages: 1 -->
<svg width="228pt" height="165pt"
 viewBox="0.00 0.00 228.00 165.00" xmlns="http://www.w3.org/2000/svg" xmlns:xlink="http://www.w3.org/1999/xlink">
<g id="graph0" class="graph" transform="scale(1 1) rotate(0) translate(4 161)">
<title>Tree</title>
<polygon fill="white" stroke="none" points="-4,4 -4,-161 224,-161 224,4 -4,4"/>
<!-- 0 -->
<g id="node1" class="node"><title>0</title>
<polygon fill="#ffffff" stroke="black" points="160,-157 56,-157 56,-89 160,-89 160,-157"/>
<text text-anchor="middle" x="108" y="-141.8" font-family="Times New Roman,serif" font-size="14.00">특성2 &lt;= 0.06</text>
<text text-anchor="middle" x="108" y="-126.8" font-family="Times New Roman,serif" font-size="14.00">samples = 100</text>
<text text-anchor="middle" x="108" y="-111.8" font-family="Times New Roman,serif" font-size="14.00">value = [50, 50]</text>
<text text-anchor="middle" x="108" y="-96.8" font-family="Times New Roman,serif" font-size="14.00">class = Flase</text>
</g>
<!-- 1 -->
<g id="node2" class="node"><title>1</title>
<polygon fill="#45a3e7" stroke="black" points="98,-53 0,-53 0,-0 98,-0 98,-53"/>
<text text-anchor="middle" x="49" y="-37.8" font-family="Times New Roman,serif" font-size="14.00">samples = 34</text>
<text text-anchor="middle" x="49" y="-22.8" font-family="Times New Roman,serif" font-size="14.00">value = [2, 32]</text>
<text text-anchor="middle" x="49" y="-7.8" font-family="Times New Roman,serif" font-size="14.00">class = True</text>
</g>
<!-- 0&#45;&gt;1 -->
<g id="edge1" class="edge"><title>0&#45;&gt;1</title>
<path fill="none" stroke="black" d="M87.3647,-88.9485C81.8817,-80.1664 75.9483,-70.6629 70.4242,-61.815"/>
<polygon fill="black" stroke="black" points="73.3333,-59.8656 65.0684,-53.2367 67.3955,-63.5728 73.3333,-59.8656"/>
<text text-anchor="middle" x="59.4353" y="-73.8938" font-family="Times New Roman,serif" font-size="14.00">True</text>
</g>
<!-- 2 -->
<g id="node3" class="node"><title>2</title>
<polygon fill="#efb083" stroke="black" points="220,-53 116,-53 116,-0 220,-0 220,-53"/>
<text text-anchor="middle" x="168" y="-37.8" font-family="Times New Roman,serif" font-size="14.00">samples = 66</text>
<text text-anchor="middle" x="168" y="-22.8" font-family="Times New Roman,serif" font-size="14.00">value = [48, 18]</text>
<text text-anchor="middle" x="168" y="-7.8" font-family="Times New Roman,serif" font-size="14.00">class = Flase</text>
</g>
<!-- 0&#45;&gt;2 -->
<g id="edge2" class="edge"><title>0&#45;&gt;2</title>
<path fill="none" stroke="black" d="M128.985,-88.9485C134.561,-80.1664 140.595,-70.6629 146.213,-61.815"/>
<polygon fill="black" stroke="black" points="149.254,-63.5549 151.659,-53.2367 143.344,-59.8028 149.254,-63.5549"/>
<text text-anchor="middle" x="157.108" y="-73.9358" font-family="Times New Roman,serif" font-size="14.00">False</text>
</g>
</g>
</svg>
