<?xml version="1.0" encoding="UTF-8" standalone="no"?>
<!DOCTYPE svg PUBLIC "-//W3C//DTD SVG 1.1//EN"
 "http://www.w3.org/Graphics/SVG/1.1/DTD/svg11.dtd">
<!-- Generated by graphviz version 2.38.0 (20140413.2041)
 -->
<!-- Title: Tree Pages: 1 -->
<svg width="561pt" height="373pt"
 viewBox="0.00 0.00 561.00 373.00" xmlns="http://www.w3.org/2000/svg" xmlns:xlink="http://www.w3.org/1999/xlink">
<g id="graph0" class="graph" transform="scale(1 1) rotate(0) translate(4 369)">
<title>Tree</title>
<polygon fill="white" stroke="none" points="-4,4 -4,-369 557,-369 557,4 -4,4"/>
<!-- 0 -->
<g id="node1" class="node"><title>0</title>
<polygon fill="#ffffff" stroke="black" points="270.5,-365 166.5,-365 166.5,-297 270.5,-297 270.5,-365"/>
<text text-anchor="middle" x="218.5" y="-349.8" font-family="Times New Roman,serif" font-size="14.00">특성2 &lt;= 0.06</text>
<text text-anchor="middle" x="218.5" y="-334.8" font-family="Times New Roman,serif" font-size="14.00">samples = 100</text>
<text text-anchor="middle" x="218.5" y="-319.8" font-family="Times New Roman,serif" font-size="14.00">value = [50, 50]</text>
<text text-anchor="middle" x="218.5" y="-304.8" font-family="Times New Roman,serif" font-size="14.00">class = Flase</text>
</g>
<!-- 1 -->
<g id="node2" class="node"><title>1</title>
<polygon fill="#45a3e7" stroke="black" points="210.5,-261 102.5,-261 102.5,-193 210.5,-193 210.5,-261"/>
<text text-anchor="middle" x="156.5" y="-245.8" font-family="Times New Roman,serif" font-size="14.00">특성1 &lt;= &#45;0.418</text>
<text text-anchor="middle" x="156.5" y="-230.8" font-family="Times New Roman,serif" font-size="14.00">samples = 34</text>
<text text-anchor="middle" x="156.5" y="-215.8" font-family="Times New Roman,serif" font-size="14.00">value = [2, 32]</text>
<text text-anchor="middle" x="156.5" y="-200.8" font-family="Times New Roman,serif" font-size="14.00">class = True</text>
</g>
<!-- 0&#45;&gt;1 -->
<g id="edge1" class="edge"><title>0&#45;&gt;1</title>
<path fill="none" stroke="black" d="M198.37,-296.884C193.173,-288.332 187.508,-279.013 182.073,-270.072"/>
<polygon fill="black" stroke="black" points="184.926,-268.027 176.741,-261.299 178.944,-271.663 184.926,-268.027"/>
<text text-anchor="middle" x="170.817" y="-281.887" font-family="Times New Roman,serif" font-size="14.00">True</text>
</g>
<!-- 4 -->
<g id="node5" class="node"><title>4</title>
<polygon fill="#efb083" stroke="black" points="332.5,-261 228.5,-261 228.5,-193 332.5,-193 332.5,-261"/>
<text text-anchor="middle" x="280.5" y="-245.8" font-family="Times New Roman,serif" font-size="14.00">특성1 &lt;= 1.196</text>
<text text-anchor="middle" x="280.5" y="-230.8" font-family="Times New Roman,serif" font-size="14.00">samples = 66</text>
<text text-anchor="middle" x="280.5" y="-215.8" font-family="Times New Roman,serif" font-size="14.00">value = [48, 18]</text>
<text text-anchor="middle" x="280.5" y="-200.8" font-family="Times New Roman,serif" font-size="14.00">class = Flase</text>
</g>
<!-- 0&#45;&gt;4 -->
<g id="edge4" class="edge"><title>0&#45;&gt;4</title>
<path fill="none" stroke="black" d="M238.63,-296.884C243.827,-288.332 249.492,-279.013 254.927,-270.072"/>
<polygon fill="black" stroke="black" points="258.056,-271.663 260.259,-261.299 252.074,-268.027 258.056,-271.663"/>
<text text-anchor="middle" x="266.183" y="-281.887" font-family="Times New Roman,serif" font-size="14.00">False</text>
</g>
<!-- 2 -->
<g id="node3" class="node"><title>2</title>
<polygon fill="#e58139" stroke="black" points="91,-149.5 0,-149.5 0,-96.5 91,-96.5 91,-149.5"/>
<text text-anchor="middle" x="45.5" y="-134.3" font-family="Times New Roman,serif" font-size="14.00">samples = 2</text>
<text text-anchor="middle" x="45.5" y="-119.3" font-family="Times New Roman,serif" font-size="14.00">value = [2, 0]</text>
<text text-anchor="middle" x="45.5" y="-104.3" font-family="Times New Roman,serif" font-size="14.00">class = Flase</text>
</g>
<!-- 1&#45;&gt;2 -->
<g id="edge2" class="edge"><title>1&#45;&gt;2</title>
<path fill="none" stroke="black" d="M120.461,-192.884C107.775,-181.226 93.5354,-168.141 80.9019,-156.532"/>
<polygon fill="black" stroke="black" points="83.0032,-153.709 73.2717,-149.52 78.2668,-158.863 83.0032,-153.709"/>
</g>
<!-- 3 -->
<g id="node4" class="node"><title>3</title>
<polygon fill="#399de5" stroke="black" points="207.5,-149.5 109.5,-149.5 109.5,-96.5 207.5,-96.5 207.5,-149.5"/>
<text text-anchor="middle" x="158.5" y="-134.3" font-family="Times New Roman,serif" font-size="14.00">samples = 32</text>
<text text-anchor="middle" x="158.5" y="-119.3" font-family="Times New Roman,serif" font-size="14.00">value = [0, 32]</text>
<text text-anchor="middle" x="158.5" y="-104.3" font-family="Times New Roman,serif" font-size="14.00">class = True</text>
</g>
<!-- 1&#45;&gt;3 -->
<g id="edge3" class="edge"><title>1&#45;&gt;3</title>
<path fill="none" stroke="black" d="M157.149,-192.884C157.359,-182.216 157.591,-170.352 157.804,-159.519"/>
<polygon fill="black" stroke="black" points="161.303,-159.587 158,-149.52 154.304,-159.449 161.303,-159.587"/>
</g>
<!-- 5 -->
<g id="node6" class="node"><title>5</title>
<polygon fill="#e9965b" stroke="black" points="331.5,-157 227.5,-157 227.5,-89 331.5,-89 331.5,-157"/>
<text text-anchor="middle" x="279.5" y="-141.8" font-family="Times New Roman,serif" font-size="14.00">특성2 &lt;= 0.495</text>
<text text-anchor="middle" x="279.5" y="-126.8" font-family="Times New Roman,serif" font-size="14.00">samples = 55</text>
<text text-anchor="middle" x="279.5" y="-111.8" font-family="Times New Roman,serif" font-size="14.00">value = [47, 8]</text>
<text text-anchor="middle" x="279.5" y="-96.8" font-family="Times New Roman,serif" font-size="14.00">class = Flase</text>
</g>
<!-- 4&#45;&gt;5 -->
<g id="edge5" class="edge"><title>4&#45;&gt;5</title>
<path fill="none" stroke="black" d="M280.175,-192.884C280.096,-184.778 280.01,-175.982 279.926,-167.472"/>
<polygon fill="black" stroke="black" points="283.424,-167.265 279.826,-157.299 276.425,-167.333 283.424,-167.265"/>
</g>
<!-- 8 -->
<g id="node9" class="node"><title>8</title>
<polygon fill="#4da7e8" stroke="black" points="453.5,-157 349.5,-157 349.5,-89 453.5,-89 453.5,-157"/>
<text text-anchor="middle" x="401.5" y="-141.8" font-family="Times New Roman,serif" font-size="14.00">특성1 &lt;= 1.672</text>
<text text-anchor="middle" x="401.5" y="-126.8" font-family="Times New Roman,serif" font-size="14.00">samples = 11</text>
<text text-anchor="middle" x="401.5" y="-111.8" font-family="Times New Roman,serif" font-size="14.00">value = [1, 10]</text>
<text text-anchor="middle" x="401.5" y="-96.8" font-family="Times New Roman,serif" font-size="14.00">class = True</text>
</g>
<!-- 4&#45;&gt;8 -->
<g id="edge8" class="edge"><title>4&#45;&gt;8</title>
<path fill="none" stroke="black" d="M319.785,-192.884C330.774,-183.62 342.833,-173.455 354.232,-163.845"/>
<polygon fill="black" stroke="black" points="356.608,-166.421 361.998,-157.299 352.096,-161.069 356.608,-166.421"/>
</g>
<!-- 6 -->
<g id="node7" class="node"><title>6</title>
<polygon fill="#efb388" stroke="black" points="214.5,-53 116.5,-53 116.5,-0 214.5,-0 214.5,-53"/>
<text text-anchor="middle" x="165.5" y="-37.8" font-family="Times New Roman,serif" font-size="14.00">samples = 21</text>
<text text-anchor="middle" x="165.5" y="-22.8" font-family="Times New Roman,serif" font-size="14.00">value = [15, 6]</text>
<text text-anchor="middle" x="165.5" y="-7.8" font-family="Times New Roman,serif" font-size="14.00">class = Flase</text>
</g>
<!-- 5&#45;&gt;6 -->
<g id="edge6" class="edge"><title>5&#45;&gt;6</title>
<path fill="none" stroke="black" d="M239.628,-88.9485C228.262,-79.526 215.893,-69.2731 204.574,-59.8906"/>
<polygon fill="black" stroke="black" points="206.48,-56.924 196.547,-53.2367 202.013,-62.3132 206.48,-56.924"/>
</g>
<!-- 7 -->
<g id="node8" class="node"><title>7</title>
<polygon fill="#e78945" stroke="black" points="330.5,-53 232.5,-53 232.5,-0 330.5,-0 330.5,-53"/>
<text text-anchor="middle" x="281.5" y="-37.8" font-family="Times New Roman,serif" font-size="14.00">samples = 34</text>
<text text-anchor="middle" x="281.5" y="-22.8" font-family="Times New Roman,serif" font-size="14.00">value = [32, 2]</text>
<text text-anchor="middle" x="281.5" y="-7.8" font-family="Times New Roman,serif" font-size="14.00">class = Flase</text>
</g>
<!-- 5&#45;&gt;7 -->
<g id="edge7" class="edge"><title>5&#45;&gt;7</title>
<path fill="none" stroke="black" d="M280.2,-88.9485C280.374,-80.7153 280.561,-71.848 280.738,-63.4814"/>
<polygon fill="black" stroke="black" points="284.243,-63.3086 280.955,-53.2367 277.244,-63.1604 284.243,-63.3086"/>
</g>
<!-- 9 -->
<g id="node10" class="node"><title>9</title>
<polygon fill="#7bbeee" stroke="black" points="444,-53 353,-53 353,-0 444,-0 444,-53"/>
<text text-anchor="middle" x="398.5" y="-37.8" font-family="Times New Roman,serif" font-size="14.00">samples = 4</text>
<text text-anchor="middle" x="398.5" y="-22.8" font-family="Times New Roman,serif" font-size="14.00">value = [1, 3]</text>
<text text-anchor="middle" x="398.5" y="-7.8" font-family="Times New Roman,serif" font-size="14.00">class = True</text>
</g>
<!-- 8&#45;&gt;9 -->
<g id="edge9" class="edge"><title>8&#45;&gt;9</title>
<path fill="none" stroke="black" d="M400.451,-88.9485C400.189,-80.7153 399.908,-71.848 399.642,-63.4814"/>
<polygon fill="black" stroke="black" points="403.133,-63.1206 399.317,-53.2367 396.136,-63.3428 403.133,-63.1206"/>
</g>
<!-- 10 -->
<g id="node11" class="node"><title>10</title>
<polygon fill="#399de5" stroke="black" points="553,-53 462,-53 462,-0 553,-0 553,-53"/>
<text text-anchor="middle" x="507.5" y="-37.8" font-family="Times New Roman,serif" font-size="14.00">samples = 7</text>
<text text-anchor="middle" x="507.5" y="-22.8" font-family="Times New Roman,serif" font-size="14.00">value = [0, 7]</text>
<text text-anchor="middle" x="507.5" y="-7.8" font-family="Times New Roman,serif" font-size="14.00">class = True</text>
</g>
<!-- 8&#45;&gt;10 -->
<g id="edge10" class="edge"><title>8&#45;&gt;10</title>
<path fill="none" stroke="black" d="M438.574,-88.9485C449.04,-79.6175 460.42,-69.4722 470.861,-60.1641"/>
<polygon fill="black" stroke="black" points="473.496,-62.5038 478.631,-53.2367 468.838,-57.2788 473.496,-62.5038"/>
</g>
</g>
</svg>
