<?xml version="1.0" encoding="UTF-8" standalone="no"?>
<!DOCTYPE svg PUBLIC "-//W3C//DTD SVG 1.1//EN"
 "http://www.w3.org/Graphics/SVG/1.1/DTD/svg11.dtd">
<!-- Generated by graphviz version 2.38.0 (20140413.2041)
 -->
<!-- Title: Tree Pages: 1 -->
<svg width="452pt" height="269pt"
 viewBox="0.00 0.00 451.50 269.00" xmlns="http://www.w3.org/2000/svg" xmlns:xlink="http://www.w3.org/1999/xlink">
<g id="graph0" class="graph" transform="scale(1 1) rotate(0) translate(4 265)">
<title>Tree</title>
<polygon fill="white" stroke="none" points="-4,4 -4,-265 447.5,-265 447.5,4 -4,4"/>
<!-- 0 -->
<g id="node1" class="node"><title>0</title>
<polygon fill="#ffffff" stroke="black" points="270.5,-261 166.5,-261 166.5,-193 270.5,-193 270.5,-261"/>
<text text-anchor="middle" x="218.5" y="-245.8" font-family="Times New Roman,serif" font-size="14.00">특성2 &lt;= 0.06</text>
<text text-anchor="middle" x="218.5" y="-230.8" font-family="Times New Roman,serif" font-size="14.00">samples = 100</text>
<text text-anchor="middle" x="218.5" y="-215.8" font-family="Times New Roman,serif" font-size="14.00">value = [50, 50]</text>
<text text-anchor="middle" x="218.5" y="-200.8" font-family="Times New Roman,serif" font-size="14.00">class = Flase</text>
</g>
<!-- 1 -->
<g id="node2" class="node"><title>1</title>
<polygon fill="#45a3e7" stroke="black" points="210.5,-157 102.5,-157 102.5,-89 210.5,-89 210.5,-157"/>
<text text-anchor="middle" x="156.5" y="-141.8" font-family="Times New Roman,serif" font-size="14.00">특성1 &lt;= &#45;0.418</text>
<text text-anchor="middle" x="156.5" y="-126.8" font-family="Times New Roman,serif" font-size="14.00">samples = 34</text>
<text text-anchor="middle" x="156.5" y="-111.8" font-family="Times New Roman,serif" font-size="14.00">value = [2, 32]</text>
<text text-anchor="middle" x="156.5" y="-96.8" font-family="Times New Roman,serif" font-size="14.00">class = True</text>
</g>
<!-- 0&#45;&gt;1 -->
<g id="edge1" class="edge"><title>0&#45;&gt;1</title>
<path fill="none" stroke="black" d="M198.37,-192.884C193.173,-184.332 187.508,-175.013 182.073,-166.072"/>
<polygon fill="black" stroke="black" points="184.926,-164.027 176.741,-157.299 178.944,-167.663 184.926,-164.027"/>
<text text-anchor="middle" x="170.817" y="-177.887" font-family="Times New Roman,serif" font-size="14.00">True</text>
</g>
<!-- 4 -->
<g id="node5" class="node"><title>4</title>
<polygon fill="#efb083" stroke="black" points="332.5,-157 228.5,-157 228.5,-89 332.5,-89 332.5,-157"/>
<text text-anchor="middle" x="280.5" y="-141.8" font-family="Times New Roman,serif" font-size="14.00">특성1 &lt;= 1.196</text>
<text text-anchor="middle" x="280.5" y="-126.8" font-family="Times New Roman,serif" font-size="14.00">samples = 66</text>
<text text-anchor="middle" x="280.5" y="-111.8" font-family="Times New Roman,serif" font-size="14.00">value = [48, 18]</text>
<text text-anchor="middle" x="280.5" y="-96.8" font-family="Times New Roman,serif" font-size="14.00">class = Flase</text>
</g>
<!-- 0&#45;&gt;4 -->
<g id="edge4" class="edge"><title>0&#45;&gt;4</title>
<path fill="none" stroke="black" d="M238.63,-192.884C243.827,-184.332 249.492,-175.013 254.927,-166.072"/>
<polygon fill="black" stroke="black" points="258.056,-167.663 260.259,-157.299 252.074,-164.027 258.056,-167.663"/>
<text text-anchor="middle" x="266.183" y="-177.887" font-family="Times New Roman,serif" font-size="14.00">False</text>
</g>
<!-- 2 -->
<g id="node3" class="node"><title>2</title>
<polygon fill="#e58139" stroke="black" points="91,-53 0,-53 0,-0 91,-0 91,-53"/>
<text text-anchor="middle" x="45.5" y="-37.8" font-family="Times New Roman,serif" font-size="14.00">samples = 2</text>
<text text-anchor="middle" x="45.5" y="-22.8" font-family="Times New Roman,serif" font-size="14.00">value = [2, 0]</text>
<text text-anchor="middle" x="45.5" y="-7.8" font-family="Times New Roman,serif" font-size="14.00">class = Flase</text>
</g>
<!-- 1&#45;&gt;2 -->
<g id="edge2" class="edge"><title>1&#45;&gt;2</title>
<path fill="none" stroke="black" d="M117.678,-88.9485C106.61,-79.526 94.5669,-69.2731 83.546,-59.8906"/>
<polygon fill="black" stroke="black" points="85.6136,-57.0542 75.7304,-53.2367 81.0759,-62.3842 85.6136,-57.0542"/>
</g>
<!-- 3 -->
<g id="node4" class="node"><title>3</title>
<polygon fill="#399de5" stroke="black" points="207.5,-53 109.5,-53 109.5,-0 207.5,-0 207.5,-53"/>
<text text-anchor="middle" x="158.5" y="-37.8" font-family="Times New Roman,serif" font-size="14.00">samples = 32</text>
<text text-anchor="middle" x="158.5" y="-22.8" font-family="Times New Roman,serif" font-size="14.00">value = [0, 32]</text>
<text text-anchor="middle" x="158.5" y="-7.8" font-family="Times New Roman,serif" font-size="14.00">class = True</text>
</g>
<!-- 1&#45;&gt;3 -->
<g id="edge3" class="edge"><title>1&#45;&gt;3</title>
<path fill="none" stroke="black" d="M157.2,-88.9485C157.374,-80.7153 157.561,-71.848 157.738,-63.4814"/>
<polygon fill="black" stroke="black" points="161.243,-63.3086 157.955,-53.2367 154.244,-63.1604 161.243,-63.3086"/>
</g>
<!-- 5 -->
<g id="node6" class="node"><title>5</title>
<polygon fill="#e9965b" stroke="black" points="327.5,-53 229.5,-53 229.5,-0 327.5,-0 327.5,-53"/>
<text text-anchor="middle" x="278.5" y="-37.8" font-family="Times New Roman,serif" font-size="14.00">samples = 55</text>
<text text-anchor="middle" x="278.5" y="-22.8" font-family="Times New Roman,serif" font-size="14.00">value = [47, 8]</text>
<text text-anchor="middle" x="278.5" y="-7.8" font-family="Times New Roman,serif" font-size="14.00">class = Flase</text>
</g>
<!-- 4&#45;&gt;5 -->
<g id="edge5" class="edge"><title>4&#45;&gt;5</title>
<path fill="none" stroke="black" d="M279.8,-88.9485C279.626,-80.7153 279.439,-71.848 279.262,-63.4814"/>
<polygon fill="black" stroke="black" points="282.756,-63.1604 279.045,-53.2367 275.757,-63.3086 282.756,-63.1604"/>
</g>
<!-- 6 -->
<g id="node7" class="node"><title>6</title>
<polygon fill="#4da7e8" stroke="black" points="443.5,-53 345.5,-53 345.5,-0 443.5,-0 443.5,-53"/>
<text text-anchor="middle" x="394.5" y="-37.8" font-family="Times New Roman,serif" font-size="14.00">samples = 11</text>
<text text-anchor="middle" x="394.5" y="-22.8" font-family="Times New Roman,serif" font-size="14.00">value = [1, 10]</text>
<text text-anchor="middle" x="394.5" y="-7.8" font-family="Times New Roman,serif" font-size="14.00">class = True</text>
</g>
<!-- 4&#45;&gt;6 -->
<g id="edge6" class="edge"><title>4&#45;&gt;6</title>
<path fill="none" stroke="black" d="M320.372,-88.9485C331.738,-79.526 344.107,-69.2731 355.426,-59.8906"/>
<polygon fill="black" stroke="black" points="357.987,-62.3132 363.453,-53.2367 353.52,-56.924 357.987,-62.3132"/>
</g>
</g>
</svg>
