<?xml version="1.0" encoding="UTF-8" standalone="no"?>
<!DOCTYPE svg PUBLIC "-//W3C//DTD SVG 1.1//EN"
 "http://www.w3.org/Graphics/SVG/1.1/DTD/svg11.dtd">
<!-- Generated by graphviz version 2.38.0 (20140413.2041)
 -->
<!-- Title: Tree Pages: 1 -->
<svg width="764pt" height="789pt"
 viewBox="0.00 0.00 764.00 789.00" xmlns="http://www.w3.org/2000/svg" xmlns:xlink="http://www.w3.org/1999/xlink">
<g id="graph0" class="graph" transform="scale(1 1) rotate(0) translate(4 785)">
<title>Tree</title>
<polygon fill="white" stroke="none" points="-4,4 -4,-785 760,-785 760,4 -4,4"/>
<!-- 0 -->
<g id="node1" class="node"><title>0</title>
<polygon fill="#ffffff" stroke="black" points="409.5,-781 305.5,-781 305.5,-713 409.5,-713 409.5,-781"/>
<text text-anchor="middle" x="357.5" y="-765.8" font-family="Times New Roman,serif" font-size="14.00">특성2 &lt;= 0.06</text>
<text text-anchor="middle" x="357.5" y="-750.8" font-family="Times New Roman,serif" font-size="14.00">samples = 100</text>
<text text-anchor="middle" x="357.5" y="-735.8" font-family="Times New Roman,serif" font-size="14.00">value = [50, 50]</text>
<text text-anchor="middle" x="357.5" y="-720.8" font-family="Times New Roman,serif" font-size="14.00">class = Flase</text>
</g>
<!-- 1 -->
<g id="node2" class="node"><title>1</title>
<polygon fill="#45a3e7" stroke="black" points="349.5,-677 241.5,-677 241.5,-609 349.5,-609 349.5,-677"/>
<text text-anchor="middle" x="295.5" y="-661.8" font-family="Times New Roman,serif" font-size="14.00">특성1 &lt;= &#45;0.418</text>
<text text-anchor="middle" x="295.5" y="-646.8" font-family="Times New Roman,serif" font-size="14.00">samples = 34</text>
<text text-anchor="middle" x="295.5" y="-631.8" font-family="Times New Roman,serif" font-size="14.00">value = [2, 32]</text>
<text text-anchor="middle" x="295.5" y="-616.8" font-family="Times New Roman,serif" font-size="14.00">class = True</text>
</g>
<!-- 0&#45;&gt;1 -->
<g id="edge1" class="edge"><title>0&#45;&gt;1</title>
<path fill="none" stroke="black" d="M337.37,-712.884C332.173,-704.332 326.508,-695.013 321.073,-686.072"/>
<polygon fill="black" stroke="black" points="323.926,-684.027 315.741,-677.299 317.944,-687.663 323.926,-684.027"/>
<text text-anchor="middle" x="309.817" y="-697.887" font-family="Times New Roman,serif" font-size="14.00">True</text>
</g>
<!-- 4 -->
<g id="node5" class="node"><title>4</title>
<polygon fill="#efb083" stroke="black" points="471.5,-677 367.5,-677 367.5,-609 471.5,-609 471.5,-677"/>
<text text-anchor="middle" x="419.5" y="-661.8" font-family="Times New Roman,serif" font-size="14.00">특성1 &lt;= 1.196</text>
<text text-anchor="middle" x="419.5" y="-646.8" font-family="Times New Roman,serif" font-size="14.00">samples = 66</text>
<text text-anchor="middle" x="419.5" y="-631.8" font-family="Times New Roman,serif" font-size="14.00">value = [48, 18]</text>
<text text-anchor="middle" x="419.5" y="-616.8" font-family="Times New Roman,serif" font-size="14.00">class = Flase</text>
</g>
<!-- 0&#45;&gt;4 -->
<g id="edge4" class="edge"><title>0&#45;&gt;4</title>
<path fill="none" stroke="black" d="M377.63,-712.884C382.827,-704.332 388.492,-695.013 393.927,-686.072"/>
<polygon fill="black" stroke="black" points="397.056,-687.663 399.259,-677.299 391.074,-684.027 397.056,-687.663"/>
<text text-anchor="middle" x="405.183" y="-697.887" font-family="Times New Roman,serif" font-size="14.00">False</text>
</g>
<!-- 2 -->
<g id="node3" class="node"><title>2</title>
<polygon fill="#e58139" stroke="black" points="230,-565.5 139,-565.5 139,-512.5 230,-512.5 230,-565.5"/>
<text text-anchor="middle" x="184.5" y="-550.3" font-family="Times New Roman,serif" font-size="14.00">samples = 2</text>
<text text-anchor="middle" x="184.5" y="-535.3" font-family="Times New Roman,serif" font-size="14.00">value = [2, 0]</text>
<text text-anchor="middle" x="184.5" y="-520.3" font-family="Times New Roman,serif" font-size="14.00">class = Flase</text>
</g>
<!-- 1&#45;&gt;2 -->
<g id="edge2" class="edge"><title>1&#45;&gt;2</title>
<path fill="none" stroke="black" d="M259.461,-608.884C246.775,-597.226 232.535,-584.141 219.902,-572.532"/>
<polygon fill="black" stroke="black" points="222.003,-569.709 212.272,-565.52 217.267,-574.863 222.003,-569.709"/>
</g>
<!-- 3 -->
<g id="node4" class="node"><title>3</title>
<polygon fill="#399de5" stroke="black" points="346.5,-565.5 248.5,-565.5 248.5,-512.5 346.5,-512.5 346.5,-565.5"/>
<text text-anchor="middle" x="297.5" y="-550.3" font-family="Times New Roman,serif" font-size="14.00">samples = 32</text>
<text text-anchor="middle" x="297.5" y="-535.3" font-family="Times New Roman,serif" font-size="14.00">value = [0, 32]</text>
<text text-anchor="middle" x="297.5" y="-520.3" font-family="Times New Roman,serif" font-size="14.00">class = True</text>
</g>
<!-- 1&#45;&gt;3 -->
<g id="edge3" class="edge"><title>1&#45;&gt;3</title>
<path fill="none" stroke="black" d="M296.149,-608.884C296.359,-598.216 296.591,-586.352 296.804,-575.519"/>
<polygon fill="black" stroke="black" points="300.303,-575.587 297,-565.52 293.304,-575.449 300.303,-575.587"/>
</g>
<!-- 5 -->
<g id="node6" class="node"><title>5</title>
<polygon fill="#e9965b" stroke="black" points="470.5,-573 366.5,-573 366.5,-505 470.5,-505 470.5,-573"/>
<text text-anchor="middle" x="418.5" y="-557.8" font-family="Times New Roman,serif" font-size="14.00">특성2 &lt;= 0.495</text>
<text text-anchor="middle" x="418.5" y="-542.8" font-family="Times New Roman,serif" font-size="14.00">samples = 55</text>
<text text-anchor="middle" x="418.5" y="-527.8" font-family="Times New Roman,serif" font-size="14.00">value = [47, 8]</text>
<text text-anchor="middle" x="418.5" y="-512.8" font-family="Times New Roman,serif" font-size="14.00">class = Flase</text>
</g>
<!-- 4&#45;&gt;5 -->
<g id="edge5" class="edge"><title>4&#45;&gt;5</title>
<path fill="none" stroke="black" d="M419.175,-608.884C419.096,-600.778 419.01,-591.982 418.926,-583.472"/>
<polygon fill="black" stroke="black" points="422.424,-583.265 418.826,-573.299 415.425,-583.333 422.424,-583.265"/>
</g>
<!-- 20 -->
<g id="node21" class="node"><title>20</title>
<polygon fill="#4da7e8" stroke="black" points="646.5,-573 542.5,-573 542.5,-505 646.5,-505 646.5,-573"/>
<text text-anchor="middle" x="594.5" y="-557.8" font-family="Times New Roman,serif" font-size="14.00">특성1 &lt;= 1.672</text>
<text text-anchor="middle" x="594.5" y="-542.8" font-family="Times New Roman,serif" font-size="14.00">samples = 11</text>
<text text-anchor="middle" x="594.5" y="-527.8" font-family="Times New Roman,serif" font-size="14.00">value = [1, 10]</text>
<text text-anchor="middle" x="594.5" y="-512.8" font-family="Times New Roman,serif" font-size="14.00">class = True</text>
</g>
<!-- 4&#45;&gt;20 -->
<g id="edge20" class="edge"><title>4&#45;&gt;20</title>
<path fill="none" stroke="black" d="M471.532,-611.673C491.016,-600.317 513.324,-587.314 533.543,-575.529"/>
<polygon fill="black" stroke="black" points="535.489,-578.446 542.366,-570.386 531.964,-572.398 535.489,-578.446"/>
</g>
<!-- 6 -->
<g id="node7" class="node"><title>6</title>
<polygon fill="#efb388" stroke="black" points="294.5,-469 190.5,-469 190.5,-401 294.5,-401 294.5,-469"/>
<text text-anchor="middle" x="242.5" y="-453.8" font-family="Times New Roman,serif" font-size="14.00">특성1 &lt;= 0.569</text>
<text text-anchor="middle" x="242.5" y="-438.8" font-family="Times New Roman,serif" font-size="14.00">samples = 21</text>
<text text-anchor="middle" x="242.5" y="-423.8" font-family="Times New Roman,serif" font-size="14.00">value = [15, 6]</text>
<text text-anchor="middle" x="242.5" y="-408.8" font-family="Times New Roman,serif" font-size="14.00">class = Flase</text>
</g>
<!-- 5&#45;&gt;6 -->
<g id="edge6" class="edge"><title>5&#45;&gt;6</title>
<path fill="none" stroke="black" d="M366.171,-507.673C346.487,-496.265 323.938,-483.197 303.53,-471.37"/>
<polygon fill="black" stroke="black" points="305.035,-468.196 294.628,-466.21 301.525,-474.253 305.035,-468.196"/>
</g>
<!-- 15 -->
<g id="node16" class="node"><title>15</title>
<polygon fill="#e78945" stroke="black" points="472.5,-469 364.5,-469 364.5,-401 472.5,-401 472.5,-469"/>
<text text-anchor="middle" x="418.5" y="-453.8" font-family="Times New Roman,serif" font-size="14.00">특성1 &lt;= &#45;0.047</text>
<text text-anchor="middle" x="418.5" y="-438.8" font-family="Times New Roman,serif" font-size="14.00">samples = 34</text>
<text text-anchor="middle" x="418.5" y="-423.8" font-family="Times New Roman,serif" font-size="14.00">value = [32, 2]</text>
<text text-anchor="middle" x="418.5" y="-408.8" font-family="Times New Roman,serif" font-size="14.00">class = Flase</text>
</g>
<!-- 5&#45;&gt;15 -->
<g id="edge15" class="edge"><title>5&#45;&gt;15</title>
<path fill="none" stroke="black" d="M418.5,-504.884C418.5,-496.778 418.5,-487.982 418.5,-479.472"/>
<polygon fill="black" stroke="black" points="422,-479.299 418.5,-469.299 415,-479.299 422,-479.299"/>
</g>
<!-- 7 -->
<g id="node8" class="node"><title>7</title>
<polygon fill="#fbede3" stroke="black" points="179,-365 84,-365 84,-297 179,-297 179,-365"/>
<text text-anchor="middle" x="131.5" y="-349.8" font-family="Times New Roman,serif" font-size="14.00">특성1 &lt;= &#45;0.5</text>
<text text-anchor="middle" x="131.5" y="-334.8" font-family="Times New Roman,serif" font-size="14.00">samples = 13</text>
<text text-anchor="middle" x="131.5" y="-319.8" font-family="Times New Roman,serif" font-size="14.00">value = [7, 6]</text>
<text text-anchor="middle" x="131.5" y="-304.8" font-family="Times New Roman,serif" font-size="14.00">class = Flase</text>
</g>
<!-- 6&#45;&gt;7 -->
<g id="edge7" class="edge"><title>6&#45;&gt;7</title>
<path fill="none" stroke="black" d="M206.461,-400.884C196.477,-391.709 185.531,-381.65 175.163,-372.123"/>
<polygon fill="black" stroke="black" points="177.469,-369.488 167.738,-365.299 172.733,-374.643 177.469,-369.488"/>
</g>
<!-- 14 -->
<g id="node15" class="node"><title>14</title>
<polygon fill="#e58139" stroke="black" points="288,-357.5 197,-357.5 197,-304.5 288,-304.5 288,-357.5"/>
<text text-anchor="middle" x="242.5" y="-342.3" font-family="Times New Roman,serif" font-size="14.00">samples = 8</text>
<text text-anchor="middle" x="242.5" y="-327.3" font-family="Times New Roman,serif" font-size="14.00">value = [8, 0]</text>
<text text-anchor="middle" x="242.5" y="-312.3" font-family="Times New Roman,serif" font-size="14.00">class = Flase</text>
</g>
<!-- 6&#45;&gt;14 -->
<g id="edge14" class="edge"><title>6&#45;&gt;14</title>
<path fill="none" stroke="black" d="M242.5,-400.884C242.5,-390.326 242.5,-378.597 242.5,-367.854"/>
<polygon fill="black" stroke="black" points="246,-367.52 242.5,-357.52 239,-367.52 246,-367.52"/>
</g>
<!-- 8 -->
<g id="node9" class="node"><title>8</title>
<polygon fill="#e58139" stroke="black" points="91,-253.5 0,-253.5 0,-200.5 91,-200.5 91,-253.5"/>
<text text-anchor="middle" x="45.5" y="-238.3" font-family="Times New Roman,serif" font-size="14.00">samples = 6</text>
<text text-anchor="middle" x="45.5" y="-223.3" font-family="Times New Roman,serif" font-size="14.00">value = [6, 0]</text>
<text text-anchor="middle" x="45.5" y="-208.3" font-family="Times New Roman,serif" font-size="14.00">class = Flase</text>
</g>
<!-- 7&#45;&gt;8 -->
<g id="edge8" class="edge"><title>7&#45;&gt;8</title>
<path fill="none" stroke="black" d="M103.578,-296.884C93.9346,-285.446 83.1325,-272.634 73.4839,-261.19"/>
<polygon fill="black" stroke="black" points="76.1386,-258.909 67.0168,-253.52 70.787,-263.421 76.1386,-258.909"/>
</g>
<!-- 9 -->
<g id="node10" class="node"><title>9</title>
<polygon fill="#5aade9" stroke="black" points="210,-261 109,-261 109,-193 210,-193 210,-261"/>
<text text-anchor="middle" x="159.5" y="-245.8" font-family="Times New Roman,serif" font-size="14.00">특성1 &lt;= &#45;0.08</text>
<text text-anchor="middle" x="159.5" y="-230.8" font-family="Times New Roman,serif" font-size="14.00">samples = 7</text>
<text text-anchor="middle" x="159.5" y="-215.8" font-family="Times New Roman,serif" font-size="14.00">value = [1, 6]</text>
<text text-anchor="middle" x="159.5" y="-200.8" font-family="Times New Roman,serif" font-size="14.00">class = True</text>
</g>
<!-- 7&#45;&gt;9 -->
<g id="edge9" class="edge"><title>7&#45;&gt;9</title>
<path fill="none" stroke="black" d="M140.591,-296.884C142.84,-288.689 145.284,-279.789 147.643,-271.192"/>
<polygon fill="black" stroke="black" points="151.087,-271.869 150.359,-261.299 144.337,-270.016 151.087,-271.869"/>
</g>
<!-- 10 -->
<g id="node11" class="node"><title>10</title>
<polygon fill="#ffffff" stroke="black" points="154.5,-157 46.5,-157 46.5,-89 154.5,-89 154.5,-157"/>
<text text-anchor="middle" x="100.5" y="-141.8" font-family="Times New Roman,serif" font-size="14.00">특성1 &lt;= &#45;0.373</text>
<text text-anchor="middle" x="100.5" y="-126.8" font-family="Times New Roman,serif" font-size="14.00">samples = 2</text>
<text text-anchor="middle" x="100.5" y="-111.8" font-family="Times New Roman,serif" font-size="14.00">value = [1, 1]</text>
<text text-anchor="middle" x="100.5" y="-96.8" font-family="Times New Roman,serif" font-size="14.00">class = Flase</text>
</g>
<!-- 9&#45;&gt;10 -->
<g id="edge10" class="edge"><title>9&#45;&gt;10</title>
<path fill="none" stroke="black" d="M140.344,-192.884C135.398,-184.332 130.008,-175.013 124.836,-166.072"/>
<polygon fill="black" stroke="black" points="127.798,-164.203 119.761,-157.299 121.739,-167.708 127.798,-164.203"/>
</g>
<!-- 13 -->
<g id="node14" class="node"><title>13</title>
<polygon fill="#399de5" stroke="black" points="264,-149.5 173,-149.5 173,-96.5 264,-96.5 264,-149.5"/>
<text text-anchor="middle" x="218.5" y="-134.3" font-family="Times New Roman,serif" font-size="14.00">samples = 5</text>
<text text-anchor="middle" x="218.5" y="-119.3" font-family="Times New Roman,serif" font-size="14.00">value = [0, 5]</text>
<text text-anchor="middle" x="218.5" y="-104.3" font-family="Times New Roman,serif" font-size="14.00">class = True</text>
</g>
<!-- 9&#45;&gt;13 -->
<g id="edge13" class="edge"><title>9&#45;&gt;13</title>
<path fill="none" stroke="black" d="M178.656,-192.884C185.081,-181.776 192.255,-169.372 198.727,-158.184"/>
<polygon fill="black" stroke="black" points="201.761,-159.929 203.738,-149.52 195.702,-156.424 201.761,-159.929"/>
</g>
<!-- 11 -->
<g id="node12" class="node"><title>11</title>
<polygon fill="#399de5" stroke="black" points="92,-53 1,-53 1,-0 92,-0 92,-53"/>
<text text-anchor="middle" x="46.5" y="-37.8" font-family="Times New Roman,serif" font-size="14.00">samples = 1</text>
<text text-anchor="middle" x="46.5" y="-22.8" font-family="Times New Roman,serif" font-size="14.00">value = [0, 1]</text>
<text text-anchor="middle" x="46.5" y="-7.8" font-family="Times New Roman,serif" font-size="14.00">class = True</text>
</g>
<!-- 10&#45;&gt;11 -->
<g id="edge11" class="edge"><title>10&#45;&gt;11</title>
<path fill="none" stroke="black" d="M81.6134,-88.9485C76.6474,-80.2579 71.2776,-70.8608 66.2667,-62.0917"/>
<polygon fill="black" stroke="black" points="69.207,-60.1826 61.2067,-53.2367 63.1293,-63.6557 69.207,-60.1826"/>
</g>
<!-- 12 -->
<g id="node13" class="node"><title>12</title>
<polygon fill="#e58139" stroke="black" points="201,-53 110,-53 110,-0 201,-0 201,-53"/>
<text text-anchor="middle" x="155.5" y="-37.8" font-family="Times New Roman,serif" font-size="14.00">samples = 1</text>
<text text-anchor="middle" x="155.5" y="-22.8" font-family="Times New Roman,serif" font-size="14.00">value = [1, 0]</text>
<text text-anchor="middle" x="155.5" y="-7.8" font-family="Times New Roman,serif" font-size="14.00">class = Flase</text>
</g>
<!-- 10&#45;&gt;12 -->
<g id="edge12" class="edge"><title>10&#45;&gt;12</title>
<path fill="none" stroke="black" d="M119.736,-88.9485C124.794,-80.2579 130.264,-70.8608 135.367,-62.0917"/>
<polygon fill="black" stroke="black" points="138.516,-63.6401 140.521,-53.2367 132.466,-60.1189 138.516,-63.6401"/>
</g>
<!-- 16 -->
<g id="node17" class="node"><title>16</title>
<polygon fill="#e89253" stroke="black" points="414.5,-365 306.5,-365 306.5,-297 414.5,-297 414.5,-365"/>
<text text-anchor="middle" x="360.5" y="-349.8" font-family="Times New Roman,serif" font-size="14.00">특성1 &lt;= &#45;0.179</text>
<text text-anchor="middle" x="360.5" y="-334.8" font-family="Times New Roman,serif" font-size="14.00">samples = 17</text>
<text text-anchor="middle" x="360.5" y="-319.8" font-family="Times New Roman,serif" font-size="14.00">value = [15, 2]</text>
<text text-anchor="middle" x="360.5" y="-304.8" font-family="Times New Roman,serif" font-size="14.00">class = Flase</text>
</g>
<!-- 15&#45;&gt;16 -->
<g id="edge16" class="edge"><title>15&#45;&gt;16</title>
<path fill="none" stroke="black" d="M399.669,-400.884C394.807,-392.332 389.508,-383.013 384.423,-374.072"/>
<polygon fill="black" stroke="black" points="387.421,-372.262 379.435,-365.299 381.335,-375.722 387.421,-372.262"/>
</g>
<!-- 19 -->
<g id="node20" class="node"><title>19</title>
<polygon fill="#e58139" stroke="black" points="530.5,-357.5 432.5,-357.5 432.5,-304.5 530.5,-304.5 530.5,-357.5"/>
<text text-anchor="middle" x="481.5" y="-342.3" font-family="Times New Roman,serif" font-size="14.00">samples = 17</text>
<text text-anchor="middle" x="481.5" y="-327.3" font-family="Times New Roman,serif" font-size="14.00">value = [17, 0]</text>
<text text-anchor="middle" x="481.5" y="-312.3" font-family="Times New Roman,serif" font-size="14.00">class = Flase</text>
</g>
<!-- 15&#45;&gt;19 -->
<g id="edge19" class="edge"><title>15&#45;&gt;19</title>
<path fill="none" stroke="black" d="M438.954,-400.884C445.815,-389.776 453.476,-377.372 460.386,-366.184"/>
<polygon fill="black" stroke="black" points="463.461,-367.867 465.738,-357.52 457.505,-364.189 463.461,-367.867"/>
</g>
<!-- 17 -->
<g id="node18" class="node"><title>17</title>
<polygon fill="#e58139" stroke="black" points="354.5,-253.5 256.5,-253.5 256.5,-200.5 354.5,-200.5 354.5,-253.5"/>
<text text-anchor="middle" x="305.5" y="-238.3" font-family="Times New Roman,serif" font-size="14.00">samples = 15</text>
<text text-anchor="middle" x="305.5" y="-223.3" font-family="Times New Roman,serif" font-size="14.00">value = [15, 0]</text>
<text text-anchor="middle" x="305.5" y="-208.3" font-family="Times New Roman,serif" font-size="14.00">class = Flase</text>
</g>
<!-- 16&#45;&gt;17 -->
<g id="edge17" class="edge"><title>16&#45;&gt;17</title>
<path fill="none" stroke="black" d="M342.643,-296.884C336.713,-285.886 330.098,-273.617 324.112,-262.517"/>
<polygon fill="black" stroke="black" points="327.088,-260.661 319.261,-253.52 320.926,-263.983 327.088,-260.661"/>
</g>
<!-- 18 -->
<g id="node19" class="node"><title>18</title>
<polygon fill="#399de5" stroke="black" points="464,-253.5 373,-253.5 373,-200.5 464,-200.5 464,-253.5"/>
<text text-anchor="middle" x="418.5" y="-238.3" font-family="Times New Roman,serif" font-size="14.00">samples = 2</text>
<text text-anchor="middle" x="418.5" y="-223.3" font-family="Times New Roman,serif" font-size="14.00">value = [0, 2]</text>
<text text-anchor="middle" x="418.5" y="-208.3" font-family="Times New Roman,serif" font-size="14.00">class = True</text>
</g>
<!-- 16&#45;&gt;18 -->
<g id="edge18" class="edge"><title>16&#45;&gt;18</title>
<path fill="none" stroke="black" d="M379.331,-296.884C385.585,-285.886 392.561,-273.617 398.873,-262.517"/>
<polygon fill="black" stroke="black" points="402.088,-263.943 403.989,-253.52 396.003,-260.483 402.088,-263.943"/>
</g>
<!-- 21 -->
<g id="node22" class="node"><title>21</title>
<polygon fill="#7bbeee" stroke="black" points="646.5,-469 542.5,-469 542.5,-401 646.5,-401 646.5,-469"/>
<text text-anchor="middle" x="594.5" y="-453.8" font-family="Times New Roman,serif" font-size="14.00">특성1 &lt;= 1.659</text>
<text text-anchor="middle" x="594.5" y="-438.8" font-family="Times New Roman,serif" font-size="14.00">samples = 4</text>
<text text-anchor="middle" x="594.5" y="-423.8" font-family="Times New Roman,serif" font-size="14.00">value = [1, 3]</text>
<text text-anchor="middle" x="594.5" y="-408.8" font-family="Times New Roman,serif" font-size="14.00">class = True</text>
</g>
<!-- 20&#45;&gt;21 -->
<g id="edge21" class="edge"><title>20&#45;&gt;21</title>
<path fill="none" stroke="black" d="M594.5,-504.884C594.5,-496.778 594.5,-487.982 594.5,-479.472"/>
<polygon fill="black" stroke="black" points="598,-479.299 594.5,-469.299 591,-479.299 598,-479.299"/>
</g>
<!-- 24 -->
<g id="node25" class="node"><title>24</title>
<polygon fill="#399de5" stroke="black" points="756,-461.5 665,-461.5 665,-408.5 756,-408.5 756,-461.5"/>
<text text-anchor="middle" x="710.5" y="-446.3" font-family="Times New Roman,serif" font-size="14.00">samples = 7</text>
<text text-anchor="middle" x="710.5" y="-431.3" font-family="Times New Roman,serif" font-size="14.00">value = [0, 7]</text>
<text text-anchor="middle" x="710.5" y="-416.3" font-family="Times New Roman,serif" font-size="14.00">class = True</text>
</g>
<!-- 20&#45;&gt;24 -->
<g id="edge24" class="edge"><title>20&#45;&gt;24</title>
<path fill="none" stroke="black" d="M632.162,-504.884C645.545,-493.116 660.582,-479.894 673.877,-468.203"/>
<polygon fill="black" stroke="black" points="676.279,-470.752 681.477,-461.52 671.656,-465.495 676.279,-470.752"/>
</g>
<!-- 22 -->
<g id="node23" class="node"><title>22</title>
<polygon fill="#399de5" stroke="black" points="640,-357.5 549,-357.5 549,-304.5 640,-304.5 640,-357.5"/>
<text text-anchor="middle" x="594.5" y="-342.3" font-family="Times New Roman,serif" font-size="14.00">samples = 3</text>
<text text-anchor="middle" x="594.5" y="-327.3" font-family="Times New Roman,serif" font-size="14.00">value = [0, 3]</text>
<text text-anchor="middle" x="594.5" y="-312.3" font-family="Times New Roman,serif" font-size="14.00">class = True</text>
</g>
<!-- 21&#45;&gt;22 -->
<g id="edge22" class="edge"><title>21&#45;&gt;22</title>
<path fill="none" stroke="black" d="M594.5,-400.884C594.5,-390.326 594.5,-378.597 594.5,-367.854"/>
<polygon fill="black" stroke="black" points="598,-367.52 594.5,-357.52 591,-367.52 598,-367.52"/>
</g>
<!-- 23 -->
<g id="node24" class="node"><title>23</title>
<polygon fill="#e58139" stroke="black" points="749,-357.5 658,-357.5 658,-304.5 749,-304.5 749,-357.5"/>
<text text-anchor="middle" x="703.5" y="-342.3" font-family="Times New Roman,serif" font-size="14.00">samples = 1</text>
<text text-anchor="middle" x="703.5" y="-327.3" font-family="Times New Roman,serif" font-size="14.00">value = [1, 0]</text>
<text text-anchor="middle" x="703.5" y="-312.3" font-family="Times New Roman,serif" font-size="14.00">class = Flase</text>
</g>
<!-- 21&#45;&gt;23 -->
<g id="edge23" class="edge"><title>21&#45;&gt;23</title>
<path fill="none" stroke="black" d="M629.889,-400.884C642.347,-389.226 656.33,-376.141 668.736,-364.532"/>
<polygon fill="black" stroke="black" points="671.319,-366.908 676.229,-357.52 666.536,-361.797 671.319,-366.908"/>
</g>
</g>
</svg>
