<?xml version="1.0" encoding="UTF-8" standalone="no"?>
<!DOCTYPE svg PUBLIC "-//W3C//DTD SVG 1.1//EN"
 "http://www.w3.org/Graphics/SVG/1.1/DTD/svg11.dtd">
<!-- Generated by graphviz version 2.38.0 (20140413.2041)
 -->
<!-- Title: Tree Pages: 1 -->
<svg width="1142pt" height="477pt"
 viewBox="0.00 0.00 1142.00 477.00" xmlns="http://www.w3.org/2000/svg" xmlns:xlink="http://www.w3.org/1999/xlink">
<g id="graph0" class="graph" transform="scale(1 1) rotate(0) translate(4 473)">
<title>Tree</title>
<polygon fill="white" stroke="none" points="-4,4 -4,-473 1138,-473 1138,4 -4,4"/>
<!-- 0 -->
<g id="node1" class="node"><title>0</title>
<polygon fill="#afd7f4" stroke="black" points="610.5,-469 445.5,-469 445.5,-401 610.5,-401 610.5,-469"/>
<text text-anchor="middle" x="528" y="-453.8" font-family="Times New Roman,serif" font-size="14.00">worst perimeter &lt;= 105.95</text>
<text text-anchor="middle" x="528" y="-438.8" font-family="Times New Roman,serif" font-size="14.00">samples = 426</text>
<text text-anchor="middle" x="528" y="-423.8" font-family="Times New Roman,serif" font-size="14.00">value = [159, 267]</text>
<text text-anchor="middle" x="528" y="-408.8" font-family="Times New Roman,serif" font-size="14.00">class = 양성</text>
</g>
<!-- 1 -->
<g id="node2" class="node"><title>1</title>
<polygon fill="#41a1e6" stroke="black" points="507.5,-365 316.5,-365 316.5,-297 507.5,-297 507.5,-365"/>
<text text-anchor="middle" x="412" y="-349.8" font-family="Times New Roman,serif" font-size="14.00">worst concave points &lt;= 0.142</text>
<text text-anchor="middle" x="412" y="-334.8" font-family="Times New Roman,serif" font-size="14.00">samples = 257</text>
<text text-anchor="middle" x="412" y="-319.8" font-family="Times New Roman,serif" font-size="14.00">value = [10, 247]</text>
<text text-anchor="middle" x="412" y="-304.8" font-family="Times New Roman,serif" font-size="14.00">class = 양성</text>
</g>
<!-- 0&#45;&gt;1 -->
<g id="edge1" class="edge"><title>0&#45;&gt;1</title>
<path fill="none" stroke="black" d="M490.338,-400.884C479.904,-391.709 468.465,-381.65 457.63,-372.123"/>
<polygon fill="black" stroke="black" points="459.691,-369.274 449.87,-365.299 455.068,-374.531 459.691,-369.274"/>
<text text-anchor="middle" x="451.472" y="-386.548" font-family="Times New Roman,serif" font-size="14.00">True</text>
</g>
<!-- 12 -->
<g id="node13" class="node"><title>12</title>
<polygon fill="#e89254" stroke="black" points="726.5,-365 561.5,-365 561.5,-297 726.5,-297 726.5,-365"/>
<text text-anchor="middle" x="644" y="-349.8" font-family="Times New Roman,serif" font-size="14.00">worst perimeter &lt;= 114.45</text>
<text text-anchor="middle" x="644" y="-334.8" font-family="Times New Roman,serif" font-size="14.00">samples = 169</text>
<text text-anchor="middle" x="644" y="-319.8" font-family="Times New Roman,serif" font-size="14.00">value = [149, 20]</text>
<text text-anchor="middle" x="644" y="-304.8" font-family="Times New Roman,serif" font-size="14.00">class = 악성</text>
</g>
<!-- 0&#45;&gt;12 -->
<g id="edge12" class="edge"><title>0&#45;&gt;12</title>
<path fill="none" stroke="black" d="M565.662,-400.884C576.096,-391.709 587.535,-381.65 598.37,-372.123"/>
<polygon fill="black" stroke="black" points="600.932,-374.531 606.13,-365.299 596.309,-369.274 600.932,-374.531"/>
<text text-anchor="middle" x="604.528" y="-386.548" font-family="Times New Roman,serif" font-size="14.00">False</text>
</g>
<!-- 2 -->
<g id="node3" class="node"><title>2</title>
<polygon fill="#3b9ee5" stroke="black" points="273,-261 133,-261 133,-193 273,-193 273,-261"/>
<text text-anchor="middle" x="203" y="-245.8" font-family="Times New Roman,serif" font-size="14.00">worst radius &lt;= 15.78</text>
<text text-anchor="middle" x="203" y="-230.8" font-family="Times New Roman,serif" font-size="14.00">samples = 243</text>
<text text-anchor="middle" x="203" y="-215.8" font-family="Times New Roman,serif" font-size="14.00">value = [2, 241]</text>
<text text-anchor="middle" x="203" y="-200.8" font-family="Times New Roman,serif" font-size="14.00">class = 양성</text>
</g>
<!-- 1&#45;&gt;2 -->
<g id="edge2" class="edge"><title>1&#45;&gt;2</title>
<path fill="none" stroke="black" d="M344.144,-296.884C323.69,-286.901 301.091,-275.872 280.083,-265.619"/>
<polygon fill="black" stroke="black" points="281.395,-262.365 270.873,-261.125 278.325,-268.656 281.395,-262.365"/>
</g>
<!-- 7 -->
<g id="node8" class="node"><title>7</title>
<polygon fill="#f8e0ce" stroke="black" points="495.5,-261 328.5,-261 328.5,-193 495.5,-193 495.5,-261"/>
<text text-anchor="middle" x="412" y="-245.8" font-family="Times New Roman,serif" font-size="14.00">worst smoothness &lt;= 0.17</text>
<text text-anchor="middle" x="412" y="-230.8" font-family="Times New Roman,serif" font-size="14.00">samples = 14</text>
<text text-anchor="middle" x="412" y="-215.8" font-family="Times New Roman,serif" font-size="14.00">value = [8, 6]</text>
<text text-anchor="middle" x="412" y="-200.8" font-family="Times New Roman,serif" font-size="14.00">class = 악성</text>
</g>
<!-- 1&#45;&gt;7 -->
<g id="edge7" class="edge"><title>1&#45;&gt;7</title>
<path fill="none" stroke="black" d="M412,-296.884C412,-288.778 412,-279.982 412,-271.472"/>
<polygon fill="black" stroke="black" points="415.5,-271.299 412,-261.299 408.5,-271.299 415.5,-271.299"/>
</g>
<!-- 3 -->
<g id="node4" class="node"><title>3</title>
<polygon fill="#399de5" stroke="black" points="104,-149.5 0,-149.5 0,-96.5 104,-96.5 104,-149.5"/>
<text text-anchor="middle" x="52" y="-134.3" font-family="Times New Roman,serif" font-size="14.00">samples = 231</text>
<text text-anchor="middle" x="52" y="-119.3" font-family="Times New Roman,serif" font-size="14.00">value = [0, 231]</text>
<text text-anchor="middle" x="52" y="-104.3" font-family="Times New Roman,serif" font-size="14.00">class = 양성</text>
</g>
<!-- 2&#45;&gt;3 -->
<g id="edge3" class="edge"><title>2&#45;&gt;3</title>
<path fill="none" stroke="black" d="M153.975,-192.884C136.065,-180.786 115.88,-167.151 98.2234,-155.224"/>
<polygon fill="black" stroke="black" points="100.025,-152.217 89.7795,-149.52 96.1069,-158.018 100.025,-152.217"/>
</g>
<!-- 4 -->
<g id="node5" class="node"><title>4</title>
<polygon fill="#61b1ea" stroke="black" points="283.5,-157 122.5,-157 122.5,-89 283.5,-89 283.5,-157"/>
<text text-anchor="middle" x="203" y="-141.8" font-family="Times New Roman,serif" font-size="14.00">worst concavity &lt;= 0.189</text>
<text text-anchor="middle" x="203" y="-126.8" font-family="Times New Roman,serif" font-size="14.00">samples = 12</text>
<text text-anchor="middle" x="203" y="-111.8" font-family="Times New Roman,serif" font-size="14.00">value = [2, 10]</text>
<text text-anchor="middle" x="203" y="-96.8" font-family="Times New Roman,serif" font-size="14.00">class = 양성</text>
</g>
<!-- 2&#45;&gt;4 -->
<g id="edge4" class="edge"><title>2&#45;&gt;4</title>
<path fill="none" stroke="black" d="M203,-192.884C203,-184.778 203,-175.982 203,-167.472"/>
<polygon fill="black" stroke="black" points="206.5,-167.299 203,-157.299 199.5,-167.299 206.5,-167.299"/>
</g>
<!-- 5 -->
<g id="node6" class="node"><title>5</title>
<polygon fill="#399de5" stroke="black" points="152,-53 54,-53 54,-0 152,-0 152,-53"/>
<text text-anchor="middle" x="103" y="-37.8" font-family="Times New Roman,serif" font-size="14.00">samples = 10</text>
<text text-anchor="middle" x="103" y="-22.8" font-family="Times New Roman,serif" font-size="14.00">value = [0, 10]</text>
<text text-anchor="middle" x="103" y="-7.8" font-family="Times New Roman,serif" font-size="14.00">class = 양성</text>
</g>
<!-- 4&#45;&gt;5 -->
<g id="edge5" class="edge"><title>4&#45;&gt;5</title>
<path fill="none" stroke="black" d="M168.025,-88.9485C158.151,-79.6175 147.415,-69.4722 137.565,-60.1641"/>
<polygon fill="black" stroke="black" points="139.907,-57.5613 130.235,-53.2367 135.099,-62.649 139.907,-57.5613"/>
</g>
<!-- 6 -->
<g id="node7" class="node"><title>6</title>
<polygon fill="#e58139" stroke="black" points="261.5,-53 170.5,-53 170.5,-0 261.5,-0 261.5,-53"/>
<text text-anchor="middle" x="216" y="-37.8" font-family="Times New Roman,serif" font-size="14.00">samples = 2</text>
<text text-anchor="middle" x="216" y="-22.8" font-family="Times New Roman,serif" font-size="14.00">value = [2, 0]</text>
<text text-anchor="middle" x="216" y="-7.8" font-family="Times New Roman,serif" font-size="14.00">class = 악성</text>
</g>
<!-- 4&#45;&gt;6 -->
<g id="edge6" class="edge"><title>4&#45;&gt;6</title>
<path fill="none" stroke="black" d="M207.547,-88.9485C208.692,-80.6238 209.926,-71.6509 211.089,-63.2027"/>
<polygon fill="black" stroke="black" points="214.564,-63.6204 212.46,-53.2367 207.629,-62.6664 214.564,-63.6204"/>
</g>
<!-- 8 -->
<g id="node9" class="node"><title>8</title>
<polygon fill="#7bbeee" stroke="black" points="426.5,-157 301.5,-157 301.5,-89 426.5,-89 426.5,-157"/>
<text text-anchor="middle" x="364" y="-141.8" font-family="Times New Roman,serif" font-size="14.00">area error &lt;= 20.99</text>
<text text-anchor="middle" x="364" y="-126.8" font-family="Times New Roman,serif" font-size="14.00">samples = 8</text>
<text text-anchor="middle" x="364" y="-111.8" font-family="Times New Roman,serif" font-size="14.00">value = [2, 6]</text>
<text text-anchor="middle" x="364" y="-96.8" font-family="Times New Roman,serif" font-size="14.00">class = 양성</text>
</g>
<!-- 7&#45;&gt;8 -->
<g id="edge8" class="edge"><title>7&#45;&gt;8</title>
<path fill="none" stroke="black" d="M396.416,-192.884C392.434,-184.422 388.098,-175.207 383.93,-166.352"/>
<polygon fill="black" stroke="black" points="387.095,-164.857 379.67,-157.299 380.761,-167.838 387.095,-164.857"/>
</g>
<!-- 11 -->
<g id="node12" class="node"><title>11</title>
<polygon fill="#e58139" stroke="black" points="535.5,-149.5 444.5,-149.5 444.5,-96.5 535.5,-96.5 535.5,-149.5"/>
<text text-anchor="middle" x="490" y="-134.3" font-family="Times New Roman,serif" font-size="14.00">samples = 6</text>
<text text-anchor="middle" x="490" y="-119.3" font-family="Times New Roman,serif" font-size="14.00">value = [6, 0]</text>
<text text-anchor="middle" x="490" y="-104.3" font-family="Times New Roman,serif" font-size="14.00">class = 악성</text>
</g>
<!-- 7&#45;&gt;11 -->
<g id="edge11" class="edge"><title>7&#45;&gt;11</title>
<path fill="none" stroke="black" d="M437.324,-192.884C445.987,-181.556 455.68,-168.88 464.367,-157.521"/>
<polygon fill="black" stroke="black" points="467.19,-159.59 470.485,-149.52 461.63,-155.337 467.19,-159.59"/>
</g>
<!-- 9 -->
<g id="node10" class="node"><title>9</title>
<polygon fill="#399de5" stroke="black" points="396.5,-53 305.5,-53 305.5,-0 396.5,-0 396.5,-53"/>
<text text-anchor="middle" x="351" y="-37.8" font-family="Times New Roman,serif" font-size="14.00">samples = 5</text>
<text text-anchor="middle" x="351" y="-22.8" font-family="Times New Roman,serif" font-size="14.00">value = [0, 5]</text>
<text text-anchor="middle" x="351" y="-7.8" font-family="Times New Roman,serif" font-size="14.00">class = 양성</text>
</g>
<!-- 8&#45;&gt;9 -->
<g id="edge9" class="edge"><title>8&#45;&gt;9</title>
<path fill="none" stroke="black" d="M359.453,-88.9485C358.308,-80.6238 357.074,-71.6509 355.911,-63.2027"/>
<polygon fill="black" stroke="black" points="359.371,-62.6664 354.54,-53.2367 352.436,-63.6204 359.371,-62.6664"/>
</g>
<!-- 10 -->
<g id="node11" class="node"><title>10</title>
<polygon fill="#f2c09c" stroke="black" points="505.5,-53 414.5,-53 414.5,-0 505.5,-0 505.5,-53"/>
<text text-anchor="middle" x="460" y="-37.8" font-family="Times New Roman,serif" font-size="14.00">samples = 3</text>
<text text-anchor="middle" x="460" y="-22.8" font-family="Times New Roman,serif" font-size="14.00">value = [2, 1]</text>
<text text-anchor="middle" x="460" y="-7.8" font-family="Times New Roman,serif" font-size="14.00">class = 악성</text>
</g>
<!-- 8&#45;&gt;10 -->
<g id="edge10" class="edge"><title>8&#45;&gt;10</title>
<path fill="none" stroke="black" d="M397.576,-88.9485C406.962,-79.709 417.16,-69.671 426.539,-60.4381"/>
<polygon fill="black" stroke="black" points="429.184,-62.7462 433.855,-53.2367 424.273,-57.7576 429.184,-62.7462"/>
</g>
<!-- 13 -->
<g id="node14" class="node"><title>13</title>
<polygon fill="#fbede3" stroke="black" points="711,-261 577,-261 577,-193 711,-193 711,-261"/>
<text text-anchor="middle" x="644" y="-245.8" font-family="Times New Roman,serif" font-size="14.00">mean area &lt;= 614.15</text>
<text text-anchor="middle" x="644" y="-230.8" font-family="Times New Roman,serif" font-size="14.00">samples = 39</text>
<text text-anchor="middle" x="644" y="-215.8" font-family="Times New Roman,serif" font-size="14.00">value = [21, 18]</text>
<text text-anchor="middle" x="644" y="-200.8" font-family="Times New Roman,serif" font-size="14.00">class = 악성</text>
</g>
<!-- 12&#45;&gt;13 -->
<g id="edge13" class="edge"><title>12&#45;&gt;13</title>
<path fill="none" stroke="black" d="M644,-296.884C644,-288.778 644,-279.982 644,-271.472"/>
<polygon fill="black" stroke="black" points="647.5,-271.299 644,-261.299 640.5,-271.299 647.5,-271.299"/>
</g>
<!-- 18 -->
<g id="node19" class="node"><title>18</title>
<polygon fill="#e5833c" stroke="black" points="973,-261 793,-261 793,-193 973,-193 973,-261"/>
<text text-anchor="middle" x="883" y="-245.8" font-family="Times New Roman,serif" font-size="14.00">worst compactness &lt;= 0.124</text>
<text text-anchor="middle" x="883" y="-230.8" font-family="Times New Roman,serif" font-size="14.00">samples = 130</text>
<text text-anchor="middle" x="883" y="-215.8" font-family="Times New Roman,serif" font-size="14.00">value = [128, 2]</text>
<text text-anchor="middle" x="883" y="-200.8" font-family="Times New Roman,serif" font-size="14.00">class = 악성</text>
</g>
<!-- 12&#45;&gt;18 -->
<g id="edge18" class="edge"><title>12&#45;&gt;18</title>
<path fill="none" stroke="black" d="M721.596,-296.884C745.406,-286.722 771.757,-275.476 796.143,-265.069"/>
<polygon fill="black" stroke="black" points="797.561,-268.269 805.384,-261.125 794.813,-261.831 797.561,-268.269"/>
</g>
<!-- 14 -->
<g id="node15" class="node"><title>14</title>
<polygon fill="#e58139" stroke="black" points="652,-149.5 554,-149.5 554,-96.5 652,-96.5 652,-149.5"/>
<text text-anchor="middle" x="603" y="-134.3" font-family="Times New Roman,serif" font-size="14.00">samples = 15</text>
<text text-anchor="middle" x="603" y="-119.3" font-family="Times New Roman,serif" font-size="14.00">value = [15, 0]</text>
<text text-anchor="middle" x="603" y="-104.3" font-family="Times New Roman,serif" font-size="14.00">class = 악성</text>
</g>
<!-- 13&#45;&gt;14 -->
<g id="edge14" class="edge"><title>13&#45;&gt;14</title>
<path fill="none" stroke="black" d="M630.688,-192.884C626.312,-181.996 621.435,-169.863 617.008,-158.85"/>
<polygon fill="black" stroke="black" points="620.235,-157.493 613.258,-149.52 613.74,-160.104 620.235,-157.493"/>
</g>
<!-- 15 -->
<g id="node16" class="node"><title>15</title>
<polygon fill="#7bbeee" stroke="black" points="819.5,-157 670.5,-157 670.5,-89 819.5,-89 819.5,-157"/>
<text text-anchor="middle" x="745" y="-141.8" font-family="Times New Roman,serif" font-size="14.00">mean texture &lt;= 20.995</text>
<text text-anchor="middle" x="745" y="-126.8" font-family="Times New Roman,serif" font-size="14.00">samples = 24</text>
<text text-anchor="middle" x="745" y="-111.8" font-family="Times New Roman,serif" font-size="14.00">value = [6, 18]</text>
<text text-anchor="middle" x="745" y="-96.8" font-family="Times New Roman,serif" font-size="14.00">class = 양성</text>
</g>
<!-- 13&#45;&gt;15 -->
<g id="edge15" class="edge"><title>13&#45;&gt;15</title>
<path fill="none" stroke="black" d="M676.792,-192.884C685.7,-183.887 695.45,-174.041 704.72,-164.678"/>
<polygon fill="black" stroke="black" points="707.478,-166.868 712.027,-157.299 702.504,-161.943 707.478,-166.868"/>
</g>
<!-- 16 -->
<g id="node17" class="node"><title>16</title>
<polygon fill="#45a3e7" stroke="black" points="737,-53 639,-53 639,-0 737,-0 737,-53"/>
<text text-anchor="middle" x="688" y="-37.8" font-family="Times New Roman,serif" font-size="14.00">samples = 17</text>
<text text-anchor="middle" x="688" y="-22.8" font-family="Times New Roman,serif" font-size="14.00">value = [1, 16]</text>
<text text-anchor="middle" x="688" y="-7.8" font-family="Times New Roman,serif" font-size="14.00">class = 양성</text>
</g>
<!-- 15&#45;&gt;16 -->
<g id="edge16" class="edge"><title>15&#45;&gt;16</title>
<path fill="none" stroke="black" d="M725.064,-88.9485C719.767,-80.1664 714.035,-70.6629 708.698,-61.815"/>
<polygon fill="black" stroke="black" points="711.686,-59.9919 703.524,-53.2367 705.692,-63.6074 711.686,-59.9919"/>
</g>
<!-- 17 -->
<g id="node18" class="node"><title>17</title>
<polygon fill="#efb388" stroke="black" points="846.5,-53 755.5,-53 755.5,-0 846.5,-0 846.5,-53"/>
<text text-anchor="middle" x="801" y="-37.8" font-family="Times New Roman,serif" font-size="14.00">samples = 7</text>
<text text-anchor="middle" x="801" y="-22.8" font-family="Times New Roman,serif" font-size="14.00">value = [5, 2]</text>
<text text-anchor="middle" x="801" y="-7.8" font-family="Times New Roman,serif" font-size="14.00">class = 악성</text>
</g>
<!-- 15&#45;&gt;17 -->
<g id="edge17" class="edge"><title>15&#45;&gt;17</title>
<path fill="none" stroke="black" d="M764.586,-88.9485C769.736,-80.2579 775.305,-70.8608 780.501,-62.0917"/>
<polygon fill="black" stroke="black" points="783.662,-63.624 785.749,-53.2367 777.64,-60.0553 783.662,-63.624"/>
</g>
<!-- 19 -->
<g id="node20" class="node"><title>19</title>
<polygon fill="#399de5" stroke="black" points="928.5,-149.5 837.5,-149.5 837.5,-96.5 928.5,-96.5 928.5,-149.5"/>
<text text-anchor="middle" x="883" y="-134.3" font-family="Times New Roman,serif" font-size="14.00">samples = 1</text>
<text text-anchor="middle" x="883" y="-119.3" font-family="Times New Roman,serif" font-size="14.00">value = [0, 1]</text>
<text text-anchor="middle" x="883" y="-104.3" font-family="Times New Roman,serif" font-size="14.00">class = 양성</text>
</g>
<!-- 18&#45;&gt;19 -->
<g id="edge19" class="edge"><title>18&#45;&gt;19</title>
<path fill="none" stroke="black" d="M883,-192.884C883,-182.326 883,-170.597 883,-159.854"/>
<polygon fill="black" stroke="black" points="886.5,-159.52 883,-149.52 879.5,-159.52 886.5,-159.52"/>
</g>
<!-- 20 -->
<g id="node21" class="node"><title>20</title>
<polygon fill="#e5823b" stroke="black" points="1101,-157 947,-157 947,-89 1101,-89 1101,-157"/>
<text text-anchor="middle" x="1024" y="-141.8" font-family="Times New Roman,serif" font-size="14.00">perimeter error &lt;= 1.752</text>
<text text-anchor="middle" x="1024" y="-126.8" font-family="Times New Roman,serif" font-size="14.00">samples = 129</text>
<text text-anchor="middle" x="1024" y="-111.8" font-family="Times New Roman,serif" font-size="14.00">value = [128, 1]</text>
<text text-anchor="middle" x="1024" y="-96.8" font-family="Times New Roman,serif" font-size="14.00">class = 악성</text>
</g>
<!-- 18&#45;&gt;20 -->
<g id="edge20" class="edge"><title>18&#45;&gt;20</title>
<path fill="none" stroke="black" d="M928.779,-192.884C941.831,-183.442 956.177,-173.064 969.685,-163.292"/>
<polygon fill="black" stroke="black" points="971.918,-165.996 977.969,-157.299 967.815,-160.325 971.918,-165.996"/>
</g>
<!-- 21 -->
<g id="node22" class="node"><title>21</title>
<polygon fill="#f2c09c" stroke="black" points="1011.5,-53 920.5,-53 920.5,-0 1011.5,-0 1011.5,-53"/>
<text text-anchor="middle" x="966" y="-37.8" font-family="Times New Roman,serif" font-size="14.00">samples = 3</text>
<text text-anchor="middle" x="966" y="-22.8" font-family="Times New Roman,serif" font-size="14.00">value = [2, 1]</text>
<text text-anchor="middle" x="966" y="-7.8" font-family="Times New Roman,serif" font-size="14.00">class = 악성</text>
</g>
<!-- 20&#45;&gt;21 -->
<g id="edge21" class="edge"><title>20&#45;&gt;21</title>
<path fill="none" stroke="black" d="M1003.71,-88.9485C998.324,-80.1664 992.492,-70.6629 987.061,-61.815"/>
<polygon fill="black" stroke="black" points="990.01,-59.9287 981.796,-53.2367 984.044,-63.5903 990.01,-59.9287"/>
</g>
<!-- 22 -->
<g id="node23" class="node"><title>22</title>
<polygon fill="#e58139" stroke="black" points="1134,-53 1030,-53 1030,-0 1134,-0 1134,-53"/>
<text text-anchor="middle" x="1082" y="-37.8" font-family="Times New Roman,serif" font-size="14.00">samples = 126</text>
<text text-anchor="middle" x="1082" y="-22.8" font-family="Times New Roman,serif" font-size="14.00">value = [126, 0]</text>
<text text-anchor="middle" x="1082" y="-7.8" font-family="Times New Roman,serif" font-size="14.00">class = 악성</text>
</g>
<!-- 20&#45;&gt;22 -->
<g id="edge22" class="edge"><title>20&#45;&gt;22</title>
<path fill="none" stroke="black" d="M1044.29,-88.9485C1049.68,-80.1664 1055.51,-70.6629 1060.94,-61.815"/>
<polygon fill="black" stroke="black" points="1063.96,-63.5903 1066.2,-53.2367 1057.99,-59.9287 1063.96,-63.5903"/>
</g>
</g>
</svg>
